<ttFont>
    <TTGlyph name="A" xMin="15" yMin="0" xMax="659" yMax="700">
      <contour>
        <pt x="482" y="700" on="1"/>
        <pt x="659" y="0" on="1"/>
        <pt x="521" y="0" on="1"/>
        <pt x="483" y="151" on="1"/>
        <pt x="221" y="151" on="1"/>
        <pt x="153" y="0" on="1"/>
        <pt x="15" y="0" on="1"/>
        <pt x="338" y="700" on="1"/>
      </contour>
      <contour>
        <pt x="391" y="524" on="1"/>
        <pt x="276" y="271" on="1"/>
        <pt x="453" y="271" on="1"/>
        <pt x="393" y="524" on="1"/>
      </contour>
    </TTGlyph>
    <TTGlyph name="AE" xMin="-25" yMin="0" xMax="980" yMax="700">
      <contour>
        <pt x="659" y="300" on="1"/>
        <pt x="640" y="120" on="1"/>
        <pt x="919" y="120" on="1"/>
        <pt x="907" y="0" on="1"/>
        <pt x="488" y="0" on="1"/>
        <pt x="503" y="151" on="1"/>
        <pt x="243" y="151" on="1"/>
        <pt x="123" y="0" on="1"/>
        <pt x="-25" y="0" on="1"/>
        <pt x="539" y="700" on="1"/>
        <pt x="980" y="700" on="1"/>
        <pt x="967" y="580" on="1"/>
        <pt x="688" y="580" on="1"/>
        <pt x="672" y="420" on="1"/>
        <pt x="891" y="420" on="1"/>
        <pt x="878" y="300" on="1"/>
      </contour>
      <contour>
        <pt x="541" y="524" on="1"/>
        <pt x="339" y="271" on="1"/>
        <pt x="516" y="271" on="1"/>
        <pt x="543" y="524" on="1"/>
      </contour>
    </TTGlyph>
    <TTGlyph name="Aacute" xMin="15" yMin="0" xMax="659" yMax="913">
      <contour>
        <pt x="482" y="700" on="1"/>
        <pt x="659" y="0" on="1"/>
        <pt x="521" y="0" on="1"/>
        <pt x="483" y="151" on="1"/>
        <pt x="221" y="151" on="1"/>
        <pt x="153" y="0" on="1"/>
        <pt x="15" y="0" on="1"/>
        <pt x="338" y="700" on="1"/>
      </contour>
      <contour>
        <pt x="391" y="524" on="1"/>
        <pt x="276" y="271" on="1"/>
        <pt x="453" y="271" on="1"/>
        <pt x="393" y="524" on="1"/>
      </contour>
      <contour>
        <pt x="327" y="785" on="1"/>
        <pt x="434" y="913" on="1"/>
        <pt x="604" y="913" on="1"/>
        <pt x="447" y="785" on="1"/>
      </contour>
    </TTGlyph>
    <TTGlyph name="Acircumflex" xMin="15" yMin="0" xMax="659" yMax="933">
      <component glyphName="A" x="0" y="0" flags="0x1004"/>
      <component glyphName="circumflex" x="77" y="195" flags="0x1004"/>
    </TTGlyph>
    <TTGlyph name="Adieresis" xMin="15" yMin="0" xMax="659" yMax="920">
      <component glyphName="A" x="0" y="0" flags="0x1004"/>
      <component glyphName="dieresis" x="75" y="190" flags="0x1004"/>
    </TTGlyph>
    <TTGlyph name="Agrave" xMin="15" yMin="0" xMax="659" yMax="913">
      <component glyphName="A" x="0" y="0" flags="0x1004"/>
      <component glyphName="grave" x="0" y="195" flags="0x1004"/>
    </TTGlyph>
    <TTGlyph name="Aring" xMin="15" yMin="0" xMax="659" yMax="913">
      <contour>
        <pt x="567" y="657" on="1"/>
        <pt x="502" y="622" on="1"/>
        <pt x="659" y="0" on="1"/>
        <pt x="521" y="0" on="1"/>
        <pt x="483" y="151" on="1"/>
        <pt x="221" y="151" on="1"/>
        <pt x="153" y="0" on="1"/>
        <pt x="15" y="0" on="1"/>
        <pt x="301" y="620" on="1"/>
        <pt x="242" y="657" on="1"/>
        <pt x="264" y="866" on="1"/>
        <pt x="350" y="913" on="1"/>
        <pt x="511" y="913" on="1"/>
        <pt x="589" y="866" on="1"/>
      </contour>
      <contour>
        <pt x="391" y="524" on="1"/>
        <pt x="276" y="271" on="1"/>
        <pt x="453" y="271" on="1"/>
        <pt x="393" y="524" on="1"/>
      </contour>
      <contour>
        <pt x="363" y="818" on="1"/>
        <pt x="352" y="705" on="1"/>
        <pt x="467" y="705" on="1"/>
        <pt x="478" y="818" on="1"/>
      </contour>
    </TTGlyph>
    <TTGlyph name="Atilde" xMin="15" yMin="0" xMax="659" yMax="964">
      <contour>
        <pt x="482" y="700" on="1"/>
        <pt x="659" y="0" on="1"/>
        <pt x="521" y="0" on="1"/>
        <pt x="483" y="151" on="1"/>
        <pt x="221" y="151" on="1"/>
        <pt x="153" y="0" on="1"/>
        <pt x="15" y="0" on="1"/>
        <pt x="338" y="700" on="1"/>
      </contour>
      <contour>
        <pt x="391" y="524" on="1"/>
        <pt x="276" y="271" on="1"/>
        <pt x="453" y="271" on="1"/>
        <pt x="393" y="524" on="1"/>
      </contour>
      <contour>
        <pt x="331" y="867" on="1"/>
        <pt x="327" y="867" on="1"/>
        <pt x="318" y="785" on="1"/>
        <pt x="220" y="785" on="1"/>
        <pt x="233" y="909" on="1"/>
        <pt x="333" y="964" on="1"/>
        <pt x="361" y="964" on="1"/>
        <pt x="494" y="882" on="1"/>
        <pt x="498" y="882" on="1"/>
        <pt x="507" y="964" on="1"/>
        <pt x="605" y="964" on="1"/>
        <pt x="592" y="840" on="1"/>
        <pt x="492" y="785" on="1"/>
        <pt x="464" y="785" on="1"/>
      </contour>
    </TTGlyph>
    <TTGlyph name="B" xMin="85" yMin="0" xMax="646" yMax="700">
      <contour>
        <pt x="623" y="413" on="1"/>
        <pt x="531" y="363" on="1"/>
        <pt x="530" y="361" on="1"/>
        <pt x="612" y="311" on="1"/>
        <pt x="587" y="67" on="1"/>
        <pt x="464" y="0" on="1"/>
        <pt x="85" y="0" on="1"/>
        <pt x="158" y="700" on="1"/>
        <pt x="537" y="700" on="1"/>
        <pt x="646" y="633" on="1"/>
      </contour>
      <contour>
        <pt x="256" y="302" on="1"/>
        <pt x="237" y="120" on="1"/>
        <pt x="452" y="120" on="1"/>
        <pt x="471" y="302" on="1"/>
      </contour>
      <contour>
        <pt x="285" y="580" on="1"/>
        <pt x="269" y="422" on="1"/>
        <pt x="484" y="422" on="1"/>
        <pt x="500" y="580" on="1"/>
      </contour>
    </TTGlyph>
    <TTGlyph name="C" xMin="91" yMin="-5" xMax="667" yMax="705">
      <contour>
        <pt x="481" y="205" on="1"/>
        <pt x="621" y="205" on="1"/>
        <pt x="606" y="62" on="1"/>
        <pt x="483" y="-5" on="1"/>
        <pt x="200" y="-5" on="1"/>
        <pt x="91" y="62" on="1"/>
        <pt x="152" y="638" on="1"/>
        <pt x="275" y="705" on="1"/>
        <pt x="558" y="705" on="1"/>
        <pt x="667" y="638" on="1"/>
        <pt x="652" y="495" on="1"/>
        <pt x="512" y="495" on="1"/>
        <pt x="521" y="585" on="1"/>
        <pt x="286" y="585" on="1"/>
        <pt x="237" y="115" on="1"/>
        <pt x="472" y="115" on="1"/>
      </contour>
    </TTGlyph>
    <TTGlyph name="Ccedilla" xMin="91" yMin="-229" xMax="667" yMax="705">
      <contour>
        <pt x="481" y="205" on="1"/>
        <pt x="621" y="205" on="1"/>
        <pt x="606" y="62" on="1"/>
        <pt x="483" y="-5" on="1"/>
        <pt x="386" y="-5" on="1"/>
        <pt x="358" y="-47" on="1"/>
        <pt x="420" y="-85" on="1"/>
        <pt x="410" y="-179" on="1"/>
        <pt x="318" y="-229" on="1"/>
        <pt x="208" y="-229" on="1"/>
        <pt x="217" y="-149" on="1"/>
        <pt x="316" y="-149" on="1"/>
        <pt x="321" y="-104" on="1"/>
        <pt x="226" y="-104" on="1"/>
        <pt x="293" y="-5" on="1"/>
        <pt x="200" y="-5" on="1"/>
        <pt x="91" y="62" on="1"/>
        <pt x="152" y="638" on="1"/>
        <pt x="275" y="705" on="1"/>
        <pt x="558" y="705" on="1"/>
        <pt x="667" y="638" on="1"/>
        <pt x="652" y="495" on="1"/>
        <pt x="512" y="495" on="1"/>
        <pt x="521" y="585" on="1"/>
        <pt x="286" y="585" on="1"/>
        <pt x="237" y="115" on="1"/>
        <pt x="472" y="115" on="1"/>
      </contour>
    </TTGlyph>
    <TTGlyph name="D" xMin="85" yMin="0" xMax="696" yMax="700">
      <contour>
        <pt x="637" y="67" on="1"/>
        <pt x="514" y="0" on="1"/>
        <pt x="85" y="0" on="1"/>
        <pt x="158" y="700" on="1"/>
        <pt x="587" y="700" on="1"/>
        <pt x="696" y="633" on="1"/>
      </contour>
      <contour>
        <pt x="285" y="580" on="1"/>
        <pt x="237" y="120" on="1"/>
        <pt x="502" y="120" on="1"/>
        <pt x="550" y="580" on="1"/>
      </contour>
    </TTGlyph>
    <TTGlyph name="E" xMin="85" yMin="0" xMax="577" yMax="700">
      <contour>
        <pt x="256" y="300" on="1"/>
        <pt x="237" y="120" on="1"/>
        <pt x="516" y="120" on="1"/>
        <pt x="504" y="0" on="1"/>
        <pt x="85" y="0" on="1"/>
        <pt x="158" y="700" on="1"/>
        <pt x="577" y="700" on="1"/>
        <pt x="564" y="580" on="1"/>
        <pt x="285" y="580" on="1"/>
        <pt x="269" y="420" on="1"/>
        <pt x="488" y="420" on="1"/>
        <pt x="475" y="300" on="1"/>
      </contour>
    </TTGlyph>
    <TTGlyph name="Eacute" xMin="85" yMin="0" xMax="577" yMax="913">
      <contour>
        <pt x="256" y="300" on="1"/>
        <pt x="237" y="120" on="1"/>
        <pt x="516" y="120" on="1"/>
        <pt x="504" y="0" on="1"/>
        <pt x="85" y="0" on="1"/>
        <pt x="158" y="700" on="1"/>
        <pt x="577" y="700" on="1"/>
        <pt x="564" y="580" on="1"/>
        <pt x="285" y="580" on="1"/>
        <pt x="269" y="420" on="1"/>
        <pt x="488" y="420" on="1"/>
        <pt x="475" y="300" on="1"/>
      </contour>
      <contour>
        <pt x="267" y="785" on="1"/>
        <pt x="374" y="913" on="1"/>
        <pt x="544" y="913" on="1"/>
        <pt x="387" y="785" on="1"/>
      </contour>
    </TTGlyph>
    <TTGlyph name="Ecircumflex" xMin="85" yMin="0" xMax="577" yMax="933">
      <component glyphName="E" x="0" y="0" flags="0x1004"/>
      <component glyphName="circumflex" x="34" y="195" flags="0x1004"/>
    </TTGlyph>
    <TTGlyph name="Edieresis" xMin="85" yMin="0" xMax="577" yMax="920">
      <contour>
        <pt x="256" y="300" on="1"/>
        <pt x="237" y="120" on="1"/>
        <pt x="516" y="120" on="1"/>
        <pt x="504" y="0" on="1"/>
        <pt x="85" y="0" on="1"/>
        <pt x="158" y="700" on="1"/>
        <pt x="577" y="700" on="1"/>
        <pt x="564" y="580" on="1"/>
        <pt x="285" y="580" on="1"/>
        <pt x="269" y="420" on="1"/>
        <pt x="488" y="420" on="1"/>
        <pt x="475" y="300" on="1"/>
      </contour>
      <contour>
        <pt x="172" y="785" on="1"/>
        <pt x="186" y="920" on="1"/>
        <pt x="321" y="920" on="1"/>
        <pt x="307" y="785" on="1"/>
      </contour>
      <contour>
        <pt x="411" y="785" on="1"/>
        <pt x="425" y="920" on="1"/>
        <pt x="560" y="920" on="1"/>
        <pt x="546" y="785" on="1"/>
      </contour>
    </TTGlyph>
    <TTGlyph name="Egrave" xMin="85" yMin="0" xMax="577" yMax="913">
      <component glyphName="E" x="0" y="0" flags="0x1004"/>
      <component glyphName="grave" x="-30" y="195" flags="0x1004"/>
    </TTGlyph>
    <TTGlyph name="Eth" xMin="44" yMin="0" xMax="696" yMax="700">
      <contour>
        <pt x="54" y="375" on="1"/>
        <pt x="124" y="375" on="1"/>
        <pt x="158" y="700" on="1"/>
        <pt x="587" y="700" on="1"/>
        <pt x="696" y="633" on="1"/>
        <pt x="637" y="67" on="1"/>
        <pt x="514" y="0" on="1"/>
        <pt x="85" y="0" on="1"/>
        <pt x="114" y="281" on="1"/>
        <pt x="44" y="281" on="1"/>
      </contour>
      <contour>
        <pt x="285" y="580" on="1"/>
        <pt x="264" y="375" on="1"/>
        <pt x="360" y="375" on="1"/>
        <pt x="350" y="281" on="1"/>
        <pt x="254" y="281" on="1"/>
        <pt x="237" y="120" on="1"/>
        <pt x="502" y="120" on="1"/>
        <pt x="550" y="580" on="1"/>
      </contour>
    </TTGlyph>
    <TTGlyph name="Euro" xMin="49" yMin="-5" xMax="676" yMax="705">
      <contour>
        <pt x="504" y="471" on="1"/>
        <pt x="440" y="377" on="1"/>
        <pt x="281" y="377" on="1"/>
        <pt x="275" y="323" on="1"/>
        <pt x="403" y="323" on="1"/>
        <pt x="340" y="229" on="1"/>
        <pt x="266" y="229" on="1"/>
        <pt x="254" y="115" on="1"/>
        <pt x="481" y="115" on="1"/>
        <pt x="490" y="205" on="1"/>
        <pt x="630" y="205" on="1"/>
        <pt x="615" y="62" on="1"/>
        <pt x="492" y="-5" on="1"/>
        <pt x="217" y="-5" on="1"/>
        <pt x="108" y="62" on="1"/>
        <pt x="126" y="229" on="1"/>
        <pt x="49" y="229" on="1"/>
        <pt x="58" y="323" on="1"/>
        <pt x="135" y="323" on="1"/>
        <pt x="141" y="377" on="1"/>
        <pt x="64" y="377" on="1"/>
        <pt x="74" y="471" on="1"/>
        <pt x="151" y="471" on="1"/>
        <pt x="169" y="638" on="1"/>
        <pt x="292" y="705" on="1"/>
        <pt x="567" y="705" on="1"/>
        <pt x="676" y="638" on="1"/>
        <pt x="661" y="495" on="1"/>
        <pt x="521" y="495" on="1"/>
        <pt x="530" y="585" on="1"/>
        <pt x="303" y="585" on="1"/>
        <pt x="291" y="471" on="1"/>
      </contour>
    </TTGlyph>
    <TTGlyph name="F" xMin="85" yMin="0" xMax="587" yMax="700">
      <contour>
        <pt x="256" y="300" on="1"/>
        <pt x="225" y="0" on="1"/>
        <pt x="85" y="0" on="1"/>
        <pt x="158" y="700" on="1"/>
        <pt x="587" y="700" on="1"/>
        <pt x="574" y="580" on="1"/>
        <pt x="285" y="580" on="1"/>
        <pt x="269" y="420" on="1"/>
        <pt x="498" y="420" on="1"/>
        <pt x="485" y="300" on="1"/>
      </contour>
    </TTGlyph>
    <TTGlyph name="G" xMin="81" yMin="-5" xMax="657" yMax="705">
      <contour>
        <pt x="360" y="245" on="1"/>
        <pt x="373" y="365" on="1"/>
        <pt x="628" y="365" on="1"/>
        <pt x="596" y="62" on="1"/>
        <pt x="473" y="-5" on="1"/>
        <pt x="190" y="-5" on="1"/>
        <pt x="81" y="62" on="1"/>
        <pt x="142" y="638" on="1"/>
        <pt x="265" y="705" on="1"/>
        <pt x="548" y="705" on="1"/>
        <pt x="657" y="638" on="1"/>
        <pt x="642" y="495" on="1"/>
        <pt x="502" y="495" on="1"/>
        <pt x="511" y="585" on="1"/>
        <pt x="276" y="585" on="1"/>
        <pt x="227" y="115" on="1"/>
        <pt x="462" y="115" on="1"/>
        <pt x="475" y="245" on="1"/>
      </contour>
    </TTGlyph>
    <TTGlyph name="H" xMin="85" yMin="0" xMax="713" yMax="700">
      <contour>
        <pt x="256" y="300" on="1"/>
        <pt x="225" y="0" on="1"/>
        <pt x="85" y="0" on="1"/>
        <pt x="158" y="700" on="1"/>
        <pt x="298" y="700" on="1"/>
        <pt x="269" y="420" on="1"/>
        <pt x="544" y="420" on="1"/>
        <pt x="573" y="700" on="1"/>
        <pt x="713" y="700" on="1"/>
        <pt x="640" y="0" on="1"/>
        <pt x="500" y="0" on="1"/>
        <pt x="531" y="300" on="1"/>
      </contour>
    </TTGlyph>
    <TTGlyph name="I" xMin="85" yMin="0" xMax="298" yMax="700">
      <contour>
        <pt x="85" y="0" on="1"/>
        <pt x="158" y="700" on="1"/>
        <pt x="298" y="700" on="1"/>
        <pt x="225" y="0" on="1"/>
      </contour>
    </TTGlyph>
    <TTGlyph name="IJ" xMin="85" yMin="-5" xMax="843" yMax="700">
      <contour>
        <pt x="85" y="0" on="1"/>
        <pt x="158" y="700" on="1"/>
        <pt x="298" y="700" on="1"/>
        <pt x="225" y="0" on="1"/>
      </contour>
      <contour>
        <pt x="642" y="115" on="1"/>
        <pt x="703" y="700" on="1"/>
        <pt x="843" y="700" on="1"/>
        <pt x="776" y="62" on="1"/>
        <pt x="653" y="-5" on="1"/>
        <pt x="440" y="-5" on="1"/>
        <pt x="331" y="62" on="1"/>
        <pt x="351" y="255" on="1"/>
        <pt x="491" y="255" on="1"/>
        <pt x="477" y="115" on="1"/>
      </contour>
    </TTGlyph>
    <TTGlyph name="Iacute" xMin="85" yMin="0" xMax="404" yMax="913">
      <contour>
        <pt x="85" y="0" on="1"/>
        <pt x="158" y="700" on="1"/>
        <pt x="298" y="700" on="1"/>
        <pt x="225" y="0" on="1"/>
      </contour>
      <contour>
        <pt x="127" y="785" on="1"/>
        <pt x="234" y="913" on="1"/>
        <pt x="404" y="913" on="1"/>
        <pt x="247" y="785" on="1"/>
      </contour>
    </TTGlyph>
    <TTGlyph name="Icircumflex" xMin="22" yMin="0" xMax="413" yMax="933">
      <component glyphName="I" x="0" y="0" flags="0x1004"/>
      <component glyphName="circumflex" x="-110" y="195" flags="0x1004"/>
    </TTGlyph>
    <TTGlyph name="Idieresis" xMin="30" yMin="0" xMax="418" yMax="920">
      <contour>
        <pt x="85" y="0" on="1"/>
        <pt x="158" y="700" on="1"/>
        <pt x="298" y="700" on="1"/>
        <pt x="225" y="0" on="1"/>
      </contour>
      <contour>
        <pt x="30" y="785" on="1"/>
        <pt x="44" y="920" on="1"/>
        <pt x="179" y="920" on="1"/>
        <pt x="165" y="785" on="1"/>
      </contour>
      <contour>
        <pt x="269" y="785" on="1"/>
        <pt x="283" y="920" on="1"/>
        <pt x="418" y="920" on="1"/>
        <pt x="404" y="785" on="1"/>
      </contour>
    </TTGlyph>
    <TTGlyph name="Igrave" xMin="55" yMin="0" xMax="306" yMax="913">
      <component glyphName="I" x="0" y="0" flags="0x1004"/>
      <component glyphName="grave" x="-185" y="195" flags="0x1004"/>
    </TTGlyph>
    <TTGlyph name="Itilde" xMin="43" yMin="0" xMax="428" yMax="964">
      <component glyphName="I" x="0" y="0" flags="0x1004"/>
      <component glyphName="tilde" x="-88" y="200" flags="0x1004"/>
    </TTGlyph>
    <TTGlyph name="J" xMin="21" yMin="-5" xMax="533" yMax="700">
      <contour>
        <pt x="332" y="115" on="1"/>
        <pt x="393" y="700" on="1"/>
        <pt x="533" y="700" on="1"/>
        <pt x="466" y="62" on="1"/>
        <pt x="343" y="-5" on="1"/>
        <pt x="130" y="-5" on="1"/>
        <pt x="21" y="62" on="1"/>
        <pt x="41" y="255" on="1"/>
        <pt x="181" y="255" on="1"/>
        <pt x="167" y="115" on="1"/>
      </contour>
    </TTGlyph>
    <TTGlyph name="Jcircumflex" xMin="21" yMin="-5" xMax="675" yMax="938">
      <component glyphName="J" x="0" y="0" flags="0x1004"/>
      <component glyphName="circumflex" x="152" y="200" flags="0x1004"/>
    </TTGlyph>
    <TTGlyph name="K" xMin="85" yMin="0" xMax="727" yMax="700">
      <contour>
        <pt x="85" y="0" on="1"/>
        <pt x="158" y="700" on="1"/>
        <pt x="298" y="700" on="1"/>
        <pt x="265" y="385" on="1"/>
        <pt x="267" y="385" on="1"/>
        <pt x="561" y="700" on="1"/>
        <pt x="727" y="700" on="1"/>
        <pt x="417" y="372" on="1"/>
        <pt x="685" y="0" on="1"/>
        <pt x="517" y="0" on="1"/>
        <pt x="322" y="272" on="1"/>
        <pt x="245" y="191" on="1"/>
        <pt x="225" y="0" on="1"/>
      </contour>
    </TTGlyph>
    <TTGlyph name="L" xMin="85" yMin="0" xMax="476" yMax="700">
      <contour>
        <pt x="85" y="0" on="1"/>
        <pt x="158" y="700" on="1"/>
        <pt x="298" y="700" on="1"/>
        <pt x="237" y="120" on="1"/>
        <pt x="476" y="120" on="1"/>
        <pt x="464" y="0" on="1"/>
      </contour>
    </TTGlyph>
    <TTGlyph name="Ldotaccent" xMin="85" yMin="0" xMax="491" yMax="700">
      <contour>
        <pt x="85" y="0" on="1"/>
        <pt x="158" y="700" on="1"/>
        <pt x="298" y="700" on="1"/>
        <pt x="237" y="120" on="1"/>
        <pt x="476" y="120" on="1"/>
        <pt x="464" y="0" on="1"/>
      </contour>
      <contour>
        <pt x="343" y="234" on="1"/>
        <pt x="357" y="368" on="1"/>
        <pt x="491" y="368" on="1"/>
        <pt x="477" y="234" on="1"/>
      </contour>
    </TTGlyph>
    <TTGlyph name="Lslash" xMin="44" yMin="0" xMax="476" yMax="700">
      <contour>
        <pt x="54" y="378" on="1"/>
        <pt x="126" y="396" on="1"/>
        <pt x="158" y="700" on="1"/>
        <pt x="298" y="700" on="1"/>
        <pt x="270" y="433" on="1"/>
        <pt x="369" y="458" on="1"/>
        <pt x="358" y="358" on="1"/>
        <pt x="259" y="333" on="1"/>
        <pt x="237" y="120" on="1"/>
        <pt x="476" y="120" on="1"/>
        <pt x="464" y="0" on="1"/>
        <pt x="85" y="0" on="1"/>
        <pt x="116" y="296" on="1"/>
        <pt x="44" y="278" on="1"/>
      </contour>
    </TTGlyph>
    <TTGlyph name="M" xMin="85" yMin="0" xMax="882" yMax="700">
      <contour>
        <pt x="674" y="0" on="1"/>
        <pt x="722" y="462" on="1"/>
        <pt x="720" y="462" on="1"/>
        <pt x="514" y="0" on="1"/>
        <pt x="381" y="0" on="1"/>
        <pt x="271" y="468" on="1"/>
        <pt x="269" y="468" on="1"/>
        <pt x="220" y="0" on="1"/>
        <pt x="85" y="0" on="1"/>
        <pt x="158" y="700" on="1"/>
        <pt x="344" y="700" on="1"/>
        <pt x="466" y="185" on="1"/>
        <pt x="468" y="185" on="1"/>
        <pt x="697" y="700" on="1"/>
        <pt x="882" y="700" on="1"/>
        <pt x="809" y="0" on="1"/>
      </contour>
    </TTGlyph>
    <TTGlyph name="N" xMin="85" yMin="0" xMax="733" yMax="700">
      <contour>
        <pt x="272" y="453" on="1"/>
        <pt x="225" y="0" on="1"/>
        <pt x="85" y="0" on="1"/>
        <pt x="158" y="700" on="1"/>
        <pt x="289" y="700" on="1"/>
        <pt x="543" y="247" on="1"/>
        <pt x="545" y="247" on="1"/>
        <pt x="593" y="700" on="1"/>
        <pt x="733" y="700" on="1"/>
        <pt x="660" y="0" on="1"/>
        <pt x="529" y="0" on="1"/>
        <pt x="274" y="453" on="1"/>
      </contour>
    </TTGlyph>
    <TTGlyph name="Nacute" xMin="85" yMin="0" xMax="733" yMax="918">
      <component glyphName="N" x="0" y="0" flags="0x1004"/>
      <component glyphName="acute" x="137" y="200" flags="0x1004"/>
    </TTGlyph>
    <TTGlyph name="Ntilde" xMin="85" yMin="0" xMax="733" yMax="964">
      <component glyphName="N" x="0" y="0" flags="0x1004"/>
      <component glyphName="tilde" x="120" y="200" flags="0x1004"/>
    </TTGlyph>
    <TTGlyph name="O" xMin="91" yMin="-5" xMax="697" yMax="705">
      <contour>
        <pt x="636" y="62" on="1"/>
        <pt x="513" y="-5" on="1"/>
        <pt x="200" y="-5" on="1"/>
        <pt x="91" y="62" on="1"/>
        <pt x="152" y="638" on="1"/>
        <pt x="275" y="705" on="1"/>
        <pt x="588" y="705" on="1"/>
        <pt x="697" y="638" on="1"/>
      </contour>
      <contour>
        <pt x="286" y="585" on="1"/>
        <pt x="237" y="115" on="1"/>
        <pt x="502" y="115" on="1"/>
        <pt x="551" y="585" on="1"/>
      </contour>
    </TTGlyph>
    <TTGlyph name="OE" xMin="92" yMin="0" xMax="982" yMax="700">
      <contour>
        <pt x="661" y="300" on="1"/>
        <pt x="642" y="120" on="1"/>
        <pt x="921" y="120" on="1"/>
        <pt x="909" y="0" on="1"/>
        <pt x="201" y="0" on="1"/>
        <pt x="92" y="67" on="1"/>
        <pt x="151" y="633" on="1"/>
        <pt x="274" y="700" on="1"/>
        <pt x="982" y="700" on="1"/>
        <pt x="969" y="580" on="1"/>
        <pt x="690" y="580" on="1"/>
        <pt x="674" y="420" on="1"/>
        <pt x="893" y="420" on="1"/>
        <pt x="880" y="300" on="1"/>
      </contour>
      <contour>
        <pt x="285" y="580" on="1"/>
        <pt x="237" y="120" on="1"/>
        <pt x="502" y="120" on="1"/>
        <pt x="550" y="580" on="1"/>
      </contour>
    </TTGlyph>
    <TTGlyph name="Oacute" xMin="91" yMin="-5" xMax="697" yMax="913">
      <contour>
        <pt x="636" y="62" on="1"/>
        <pt x="513" y="-5" on="1"/>
        <pt x="200" y="-5" on="1"/>
        <pt x="91" y="62" on="1"/>
        <pt x="152" y="638" on="1"/>
        <pt x="275" y="705" on="1"/>
        <pt x="588" y="705" on="1"/>
        <pt x="697" y="638" on="1"/>
      </contour>
      <contour>
        <pt x="286" y="585" on="1"/>
        <pt x="237" y="115" on="1"/>
        <pt x="502" y="115" on="1"/>
        <pt x="551" y="585" on="1"/>
      </contour>
      <contour>
        <pt x="327" y="785" on="1"/>
        <pt x="434" y="913" on="1"/>
        <pt x="604" y="913" on="1"/>
        <pt x="447" y="785" on="1"/>
      </contour>
    </TTGlyph>
    <TTGlyph name="Ocircumflex" xMin="91" yMin="-5" xMax="697" yMax="933">
      <component glyphName="O" x="0" y="0" flags="0x1004"/>
      <component glyphName="circumflex" x="102" y="195" flags="0x1004"/>
    </TTGlyph>
    <TTGlyph name="Odieresis" xMin="91" yMin="-5" xMax="697" yMax="920">
      <component glyphName="O" x="0" y="0" flags="0x1004"/>
      <component glyphName="dieresis" x="95" y="190" flags="0x1004"/>
    </TTGlyph>
    <TTGlyph name="Ograve" xMin="91" yMin="-5" xMax="697" yMax="913">
      <component glyphName="O" x="0" y="0" flags="0x1004"/>
      <component glyphName="grave" x="20" y="195" flags="0x1004"/>
    </TTGlyph>
    <TTGlyph name="Oslash" xMin="91" yMin="-5" xMax="697" yMax="705">
      <contour>
        <pt x="636" y="62" on="1"/>
        <pt x="513" y="-5" on="1"/>
        <pt x="200" y="-5" on="1"/>
        <pt x="91" y="62" on="1"/>
        <pt x="152" y="638" on="1"/>
        <pt x="275" y="705" on="1"/>
        <pt x="588" y="705" on="1"/>
        <pt x="697" y="638" on="1"/>
      </contour>
      <contour>
        <pt x="286" y="115" on="1"/>
        <pt x="502" y="115" on="1"/>
        <pt x="539" y="475" on="1"/>
      </contour>
      <contour>
        <pt x="286" y="585" on="1"/>
        <pt x="248" y="225" on="1"/>
        <pt x="501" y="585" on="1"/>
      </contour>
    </TTGlyph>
    <TTGlyph name="Otilde" xMin="91" yMin="-5" xMax="697" yMax="964">
      <contour>
        <pt x="636" y="62" on="1"/>
        <pt x="513" y="-5" on="1"/>
        <pt x="200" y="-5" on="1"/>
        <pt x="91" y="62" on="1"/>
        <pt x="152" y="638" on="1"/>
        <pt x="275" y="705" on="1"/>
        <pt x="588" y="705" on="1"/>
        <pt x="697" y="638" on="1"/>
      </contour>
      <contour>
        <pt x="286" y="585" on="1"/>
        <pt x="237" y="115" on="1"/>
        <pt x="502" y="115" on="1"/>
        <pt x="551" y="585" on="1"/>
      </contour>
      <contour>
        <pt x="351" y="867" on="1"/>
        <pt x="347" y="867" on="1"/>
        <pt x="338" y="785" on="1"/>
        <pt x="240" y="785" on="1"/>
        <pt x="253" y="909" on="1"/>
        <pt x="353" y="964" on="1"/>
        <pt x="381" y="964" on="1"/>
        <pt x="514" y="882" on="1"/>
        <pt x="518" y="882" on="1"/>
        <pt x="527" y="964" on="1"/>
        <pt x="625" y="964" on="1"/>
        <pt x="612" y="840" on="1"/>
        <pt x="512" y="785" on="1"/>
        <pt x="484" y="785" on="1"/>
      </contour>
    </TTGlyph>
    <TTGlyph name="P" xMin="85" yMin="0" xMax="636" yMax="700">
      <contour>
        <pt x="85" y="0" on="1"/>
        <pt x="158" y="700" on="1"/>
        <pt x="527" y="700" on="1"/>
        <pt x="636" y="633" on="1"/>
        <pt x="603" y="321" on="1"/>
        <pt x="480" y="254" on="1"/>
        <pt x="251" y="254" on="1"/>
        <pt x="225" y="0" on="1"/>
      </contour>
      <contour>
        <pt x="285" y="580" on="1"/>
        <pt x="264" y="374" on="1"/>
        <pt x="469" y="374" on="1"/>
        <pt x="490" y="580" on="1"/>
      </contour>
    </TTGlyph>
    <TTGlyph name="Q" xMin="91" yMin="-200" xMax="697" yMax="705">
      <contour>
        <pt x="286" y="585" on="1"/>
        <pt x="237" y="115" on="1"/>
        <pt x="502" y="115" on="1"/>
        <pt x="551" y="585" on="1"/>
      </contour>
      <contour>
        <pt x="363" y="-5" on="1"/>
        <pt x="200" y="-5" on="1"/>
        <pt x="91" y="62" on="1"/>
        <pt x="152" y="638" on="1"/>
        <pt x="275" y="705" on="1"/>
        <pt x="588" y="705" on="1"/>
        <pt x="697" y="638" on="1"/>
        <pt x="636" y="62" on="1"/>
        <pt x="513" y="-5" on="1"/>
        <pt x="605" y="-200" on="1"/>
        <pt x="452" y="-200" on="1"/>
      </contour>
    </TTGlyph>
    <TTGlyph name="R" xMin="85" yMin="0" xMax="646" yMax="700">
      <contour>
        <pt x="616" y="0" on="1"/>
        <pt x="462" y="0" on="1"/>
        <pt x="339" y="264" on="1"/>
        <pt x="252" y="264" on="1"/>
        <pt x="225" y="0" on="1"/>
        <pt x="85" y="0" on="1"/>
        <pt x="158" y="700" on="1"/>
        <pt x="537" y="700" on="1"/>
        <pt x="646" y="633" on="1"/>
        <pt x="614" y="331" on="1"/>
        <pt x="491" y="264" on="1"/>
      </contour>
      <contour>
        <pt x="285" y="580" on="1"/>
        <pt x="265" y="384" on="1"/>
        <pt x="480" y="384" on="1"/>
        <pt x="500" y="580" on="1"/>
      </contour>
    </TTGlyph>
    <TTGlyph name="Racute" xMin="85" yMin="0" xMax="646" yMax="918">
      <component glyphName="R" x="0" y="0" flags="0x1004"/>
      <component glyphName="acute" x="67" y="200" flags="0x1004"/>
    </TTGlyph>
    <TTGlyph name="Rcaron" xMin="85" yMin="0" xMax="646" yMax="938">
      <component glyphName="R" x="0" y="0" flags="0x1004"/>
      <component glyphName="caron" x="69" y="200" flags="0x1004"/>
    </TTGlyph>
    <TTGlyph name="Rcommaaccent" xMin="85" yMin="-367" xMax="646" yMax="700">
      <contour>
        <pt x="616" y="0" on="1"/>
        <pt x="462" y="0" on="1"/>
        <pt x="339" y="264" on="1"/>
        <pt x="252" y="264" on="1"/>
        <pt x="225" y="0" on="1"/>
        <pt x="85" y="0" on="1"/>
        <pt x="158" y="700" on="1"/>
        <pt x="537" y="700" on="1"/>
        <pt x="646" y="633" on="1"/>
        <pt x="614" y="331" on="1"/>
        <pt x="491" y="264" on="1"/>
      </contour>
      <contour>
        <pt x="285" y="580" on="1"/>
        <pt x="265" y="384" on="1"/>
        <pt x="480" y="384" on="1"/>
        <pt x="500" y="580" on="1"/>
      </contour>
      <contour>
        <pt x="220" y="-367" on="1"/>
        <pt x="252" y="-55" on="1"/>
        <pt x="404" y="-55" on="1"/>
        <pt x="397" y="-121" on="1"/>
        <pt x="286" y="-367" on="1"/>
      </contour>
    </TTGlyph>
    <TTGlyph name="S" xMin="81" yMin="-5" xMax="637" yMax="705">
      <contour>
        <pt x="122" y="355" on="1"/>
        <pt x="152" y="638" on="1"/>
        <pt x="275" y="705" on="1"/>
        <pt x="528" y="705" on="1"/>
        <pt x="637" y="638" on="1"/>
        <pt x="623" y="505" on="1"/>
        <pt x="483" y="505" on="1"/>
        <pt x="491" y="585" on="1"/>
        <pt x="286" y="585" on="1"/>
        <pt x="268" y="418" on="1"/>
        <pt x="497" y="418" on="1"/>
        <pt x="606" y="351" on="1"/>
        <pt x="576" y="62" on="1"/>
        <pt x="453" y="-5" on="1"/>
        <pt x="190" y="-5" on="1"/>
        <pt x="81" y="62" on="1"/>
        <pt x="95" y="195" on="1"/>
        <pt x="235" y="195" on="1"/>
        <pt x="227" y="115" on="1"/>
        <pt x="442" y="115" on="1"/>
        <pt x="460" y="288" on="1"/>
        <pt x="231" y="288" on="1"/>
      </contour>
    </TTGlyph>
    <TTGlyph name="Scaron" xMin="81" yMin="-5" xMax="637" yMax="933">
      <component glyphName="S" x="0" y="0" flags="0x1004"/>
      <component glyphName="caron" x="60" y="195" flags="0x1004"/>
    </TTGlyph>
    <TTGlyph name="T" xMin="85" yMin="0" xMax="616" yMax="700">
      <contour>
        <pt x="414" y="580" on="1"/>
        <pt x="354" y="0" on="1"/>
        <pt x="214" y="0" on="1"/>
        <pt x="274" y="580" on="1"/>
        <pt x="85" y="580" on="1"/>
        <pt x="98" y="700" on="1"/>
        <pt x="616" y="700" on="1"/>
        <pt x="603" y="580" on="1"/>
      </contour>
    </TTGlyph>
    <TTGlyph name="Thorn" xMin="85" yMin="0" xMax="626" yMax="730">
      <contour>
        <pt x="85" y="0" on="1"/>
        <pt x="161" y="730" on="1"/>
        <pt x="301" y="730" on="1"/>
        <pt x="288" y="602" on="1"/>
        <pt x="517" y="602" on="1"/>
        <pt x="626" y="535" on="1"/>
        <pt x="591" y="208" on="1"/>
        <pt x="468" y="141" on="1"/>
        <pt x="239" y="141" on="1"/>
        <pt x="225" y="0" on="1"/>
      </contour>
      <contour>
        <pt x="275" y="482" on="1"/>
        <pt x="252" y="261" on="1"/>
        <pt x="457" y="261" on="1"/>
        <pt x="480" y="482" on="1"/>
      </contour>
    </TTGlyph>
    <TTGlyph name="U" xMin="91" yMin="-5" xMax="703" yMax="700">
      <contour>
        <pt x="563" y="700" on="1"/>
        <pt x="703" y="700" on="1"/>
        <pt x="636" y="62" on="1"/>
        <pt x="513" y="-5" on="1"/>
        <pt x="200" y="-5" on="1"/>
        <pt x="91" y="62" on="1"/>
        <pt x="158" y="700" on="1"/>
        <pt x="298" y="700" on="1"/>
        <pt x="238" y="125" on="1"/>
        <pt x="503" y="125" on="1"/>
      </contour>
    </TTGlyph>
    <TTGlyph name="Uacute" xMin="91" yMin="-5" xMax="703" yMax="913">
      <contour>
        <pt x="563" y="700" on="1"/>
        <pt x="703" y="700" on="1"/>
        <pt x="636" y="62" on="1"/>
        <pt x="513" y="-5" on="1"/>
        <pt x="200" y="-5" on="1"/>
        <pt x="91" y="62" on="1"/>
        <pt x="158" y="700" on="1"/>
        <pt x="298" y="700" on="1"/>
        <pt x="238" y="125" on="1"/>
        <pt x="503" y="125" on="1"/>
      </contour>
      <contour>
        <pt x="342" y="785" on="1"/>
        <pt x="449" y="913" on="1"/>
        <pt x="619" y="913" on="1"/>
        <pt x="462" y="785" on="1"/>
      </contour>
    </TTGlyph>
    <TTGlyph name="Ucircumflex" xMin="91" yMin="-5" xMax="703" yMax="933">
      <component glyphName="U" x="0" y="0" flags="0x1004"/>
      <component glyphName="circumflex" x="100" y="195" flags="0x1004"/>
    </TTGlyph>
    <TTGlyph name="Udieresis" xMin="91" yMin="-5" xMax="703" yMax="920">
      <contour>
        <pt x="563" y="700" on="1"/>
        <pt x="703" y="700" on="1"/>
        <pt x="636" y="62" on="1"/>
        <pt x="513" y="-5" on="1"/>
        <pt x="200" y="-5" on="1"/>
        <pt x="91" y="62" on="1"/>
        <pt x="158" y="700" on="1"/>
        <pt x="298" y="700" on="1"/>
        <pt x="238" y="125" on="1"/>
        <pt x="503" y="125" on="1"/>
      </contour>
      <contour>
        <pt x="237" y="785" on="1"/>
        <pt x="251" y="920" on="1"/>
        <pt x="386" y="920" on="1"/>
        <pt x="372" y="785" on="1"/>
      </contour>
      <contour>
        <pt x="476" y="785" on="1"/>
        <pt x="490" y="920" on="1"/>
        <pt x="625" y="920" on="1"/>
        <pt x="611" y="785" on="1"/>
      </contour>
    </TTGlyph>
    <TTGlyph name="Ugrave" xMin="91" yMin="-5" xMax="703" yMax="913">
      <component glyphName="U" x="0" y="0" flags="0x1004"/>
      <component glyphName="grave" x="10" y="195" flags="0x1004"/>
    </TTGlyph>
    <TTGlyph name="V" xMin="88" yMin="0" xMax="742" yMax="700">
      <contour>
        <pt x="742" y="700" on="1"/>
        <pt x="419" y="0" on="1"/>
        <pt x="265" y="0" on="1"/>
        <pt x="88" y="700" on="1"/>
        <pt x="230" y="700" on="1"/>
        <pt x="359" y="171" on="1"/>
        <pt x="361" y="171" on="1"/>
        <pt x="600" y="700" on="1"/>
      </contour>
    </TTGlyph>
    <TTGlyph name="W" xMin="98" yMin="0" xMax="1008" yMax="700">
      <contour>
        <pt x="1008" y="700" on="1"/>
        <pt x="757" y="0" on="1"/>
        <pt x="607" y="0" on="1"/>
        <pt x="530" y="473" on="1"/>
        <pt x="528" y="473" on="1"/>
        <pt x="353" y="0" on="1"/>
        <pt x="203" y="0" on="1"/>
        <pt x="98" y="700" on="1"/>
        <pt x="234" y="700" on="1"/>
        <pt x="302" y="220" on="1"/>
        <pt x="304" y="220" on="1"/>
        <pt x="482" y="700" on="1"/>
        <pt x="624" y="700" on="1"/>
        <pt x="702" y="222" on="1"/>
        <pt x="704" y="222" on="1"/>
        <pt x="872" y="700" on="1"/>
      </contour>
    </TTGlyph>
    <TTGlyph name="X" xMin="25" yMin="0" xMax="699" yMax="700">
      <contour>
        <pt x="25" y="0" on="1"/>
        <pt x="288" y="358" on="1"/>
        <pt x="108" y="700" on="1"/>
        <pt x="266" y="700" on="1"/>
        <pt x="380" y="483" on="1"/>
        <pt x="541" y="700" on="1"/>
        <pt x="699" y="700" on="1"/>
        <pt x="446" y="358" on="1"/>
        <pt x="636" y="0" on="1"/>
        <pt x="478" y="0" on="1"/>
        <pt x="354" y="233" on="1"/>
        <pt x="183" y="0" on="1"/>
      </contour>
    </TTGlyph>
    <TTGlyph name="Y" xMin="88" yMin="0" xMax="679" yMax="700">
      <contour>
        <pt x="240" y="0" on="1"/>
        <pt x="271" y="299" on="1"/>
        <pt x="88" y="700" on="1"/>
        <pt x="240" y="700" on="1"/>
        <pt x="355" y="438" on="1"/>
        <pt x="357" y="438" on="1"/>
        <pt x="527" y="700" on="1"/>
        <pt x="679" y="700" on="1"/>
        <pt x="411" y="298" on="1"/>
        <pt x="380" y="0" on="1"/>
      </contour>
    </TTGlyph>
    <TTGlyph name="Yacute" xMin="88" yMin="0" xMax="679" yMax="913">
      <component glyphName="Y" x="0" y="0" flags="0x1004"/>
      <component glyphName="acute" x="60" y="195" flags="0x1004"/>
    </TTGlyph>
    <TTGlyph name="Ydieresis" xMin="88" yMin="0" xMax="679" yMax="920">
      <component glyphName="Y" x="0" y="0" flags="0x1004"/>
      <component glyphName="dieresis" x="48" y="190" flags="0x1004"/>
    </TTGlyph>
    <TTGlyph name="Z" xMin="45" yMin="0" xMax="613" yMax="700">
      <contour>
        <pt x="125" y="580" on="1"/>
        <pt x="138" y="700" on="1"/>
        <pt x="613" y="700" on="1"/>
        <pt x="604" y="610" on="1"/>
        <pt x="237" y="122" on="1"/>
        <pt x="237" y="120" on="1"/>
        <pt x="552" y="120" on="1"/>
        <pt x="540" y="0" on="1"/>
        <pt x="45" y="0" on="1"/>
        <pt x="54" y="90" on="1"/>
        <pt x="420" y="578" on="1"/>
        <pt x="420" y="580" on="1"/>
      </contour>
    </TTGlyph>
    <TTGlyph name="Zcaron" xMin="45" yMin="0" xMax="613" yMax="933">
      <component glyphName="Z" x="0" y="0" flags="0x1004"/>
      <component glyphName="caron" x="50" y="195" flags="0x1004"/>
    </TTGlyph>
    <TTGlyph name="a" xMin="81" yMin="-5" xMax="573" yMax="505">
      <contour>
        <pt x="394" y="112" on="1"/>
        <pt x="423" y="388" on="1"/>
        <pt x="252" y="388" on="1"/>
        <pt x="223" y="112" on="1"/>
      </contour>
      <contour>
        <pt x="573" y="505" on="1"/>
        <pt x="519" y="-5" on="1"/>
        <pt x="453" y="-5" on="1"/>
        <pt x="386" y="36" on="1"/>
        <pt x="311" y="-5" on="1"/>
        <pt x="190" y="-5" on="1"/>
        <pt x="81" y="62" on="1"/>
        <pt x="121" y="438" on="1"/>
        <pt x="244" y="505" on="1"/>
        <pt x="365" y="505" on="1"/>
        <pt x="431" y="464" on="1"/>
        <pt x="507" y="505" on="1"/>
      </contour>
    </TTGlyph>
    <TTGlyph name="a.alt" xMin="61" yMin="-5" xMax="515" yMax="500">
      <contour>
        <pt x="212" y="197" on="1"/>
        <pt x="203" y="110" on="1"/>
        <pt x="344" y="110" on="1"/>
        <pt x="353" y="197" on="1"/>
      </contour>
      <contour>
        <pt x="170" y="-5" on="1"/>
        <pt x="61" y="62" on="1"/>
        <pt x="79" y="235" on="1"/>
        <pt x="202" y="302" on="1"/>
        <pt x="364" y="302" on="1"/>
        <pt x="373" y="383" on="1"/>
        <pt x="145" y="383" on="1"/>
        <pt x="157" y="500" on="1"/>
        <pt x="406" y="500" on="1"/>
        <pt x="515" y="433" on="1"/>
        <pt x="469" y="-5" on="1"/>
        <pt x="403" y="-5" on="1"/>
        <pt x="336" y="36" on="1"/>
        <pt x="261" y="-5" on="1"/>
      </contour>
    </TTGlyph>
    <TTGlyph name="aacute" xMin="81" yMin="-5" xMax="573" yMax="718">
      <contour>
        <pt x="394" y="112" on="1"/>
        <pt x="423" y="388" on="1"/>
        <pt x="252" y="388" on="1"/>
        <pt x="223" y="112" on="1"/>
      </contour>
      <contour>
        <pt x="573" y="505" on="1"/>
        <pt x="519" y="-5" on="1"/>
        <pt x="453" y="-5" on="1"/>
        <pt x="386" y="36" on="1"/>
        <pt x="311" y="-5" on="1"/>
        <pt x="190" y="-5" on="1"/>
        <pt x="81" y="62" on="1"/>
        <pt x="121" y="438" on="1"/>
        <pt x="244" y="505" on="1"/>
        <pt x="365" y="505" on="1"/>
        <pt x="431" y="464" on="1"/>
        <pt x="507" y="505" on="1"/>
      </contour>
      <contour>
        <pt x="247" y="590" on="1"/>
        <pt x="354" y="718" on="1"/>
        <pt x="524" y="718" on="1"/>
        <pt x="367" y="590" on="1"/>
      </contour>
    </TTGlyph>
    <TTGlyph name="acircumflex" xMin="81" yMin="-5" xMax="573" yMax="738">
      <component glyphName="a" x="0" y="0" flags="0x1004"/>
      <component glyphName="circumflex" x="35" y="0" flags="0x1004"/>
    </TTGlyph>
    <TTGlyph name="acute" xMin="227" yMin="590" xMax="504" yMax="718">
      <contour>
        <pt x="227" y="590" on="1"/>
        <pt x="334" y="718" on="1"/>
        <pt x="504" y="718" on="1"/>
        <pt x="347" y="590" on="1"/>
      </contour>
    </TTGlyph>
    <TTGlyph name="acute.cap" xMin="227" yMin="780" xMax="504" yMax="908">
      <contour>
        <pt x="227" y="780" on="1"/>
        <pt x="334" y="908" on="1"/>
        <pt x="504" y="908" on="1"/>
        <pt x="347" y="780" on="1"/>
      </contour>
    </TTGlyph>
    <TTGlyph name="adieresis" xMin="81" yMin="-5" xMax="573" yMax="730">
      <component glyphName="a" x="0" y="0" flags="0x1004"/>
      <component glyphName="dieresis" x="37" y="0" flags="0x1004"/>
    </TTGlyph>
    <TTGlyph name="ae" xMin="61" yMin="-5" xMax="794" yMax="505">
      <contour>
        <pt x="760" y="117" on="1"/>
        <pt x="748" y="0" on="1"/>
        <pt x="449" y="0" on="1"/>
        <pt x="365" y="51" on="1"/>
        <pt x="261" y="-5" on="1"/>
        <pt x="170" y="-5" on="1"/>
        <pt x="61" y="62" on="1"/>
        <pt x="79" y="235" on="1"/>
        <pt x="202" y="302" on="1"/>
        <pt x="364" y="302" on="1"/>
        <pt x="373" y="383" on="1"/>
        <pt x="145" y="383" on="1"/>
        <pt x="157" y="500" on="1"/>
        <pt x="386" y="500" on="1"/>
        <pt x="445" y="463" on="1"/>
        <pt x="522" y="505" on="1"/>
        <pt x="685" y="505" on="1"/>
        <pt x="794" y="438" on="1"/>
        <pt x="768" y="199" on="1"/>
        <pt x="490" y="199" on="1"/>
        <pt x="482" y="117" on="1"/>
      </contour>
      <contour>
        <pt x="212" y="197" on="1"/>
        <pt x="203" y="110" on="1"/>
        <pt x="344" y="110" on="1"/>
        <pt x="353" y="197" on="1"/>
      </contour>
      <contour>
        <pt x="510" y="388" on="1"/>
        <pt x="501" y="302" on="1"/>
        <pt x="642" y="302" on="1"/>
        <pt x="651" y="388" on="1"/>
      </contour>
    </TTGlyph>
    <TTGlyph name="agrave" xMin="81" yMin="-5" xMax="573" yMax="718">
      <component glyphName="a" x="0" y="0" flags="0x1004"/>
      <component glyphName="grave" x="-21" y="0" flags="0x1004"/>
    </TTGlyph>
    <TTGlyph name="ampersand" xMin="91" yMin="-5" xMax="684" yMax="705">
      <contour>
        <pt x="684" y="422" on="1"/>
        <pt x="671" y="302" on="1"/>
        <pt x="597" y="302" on="1"/>
        <pt x="572" y="62" on="1"/>
        <pt x="449" y="-5" on="1"/>
        <pt x="200" y="-5" on="1"/>
        <pt x="91" y="62" on="1"/>
        <pt x="117" y="311" on="1"/>
        <pt x="209" y="361" on="1"/>
        <pt x="210" y="363" on="1"/>
        <pt x="128" y="413" on="1"/>
        <pt x="152" y="638" on="1"/>
        <pt x="275" y="705" on="1"/>
        <pt x="484" y="705" on="1"/>
        <pt x="593" y="638" on="1"/>
        <pt x="578" y="495" on="1"/>
        <pt x="438" y="495" on="1"/>
        <pt x="447" y="585" on="1"/>
        <pt x="286" y="585" on="1"/>
        <pt x="269" y="422" on="1"/>
        <pt x="414" y="422" on="1"/>
        <pt x="401" y="302" on="1"/>
        <pt x="256" y="302" on="1"/>
        <pt x="237" y="115" on="1"/>
        <pt x="438" y="115" on="1"/>
        <pt x="463" y="355" on="1"/>
        <pt x="586" y="422" on="1"/>
      </contour>
    </TTGlyph>
    <TTGlyph name="apple" xMin="80" yMin="-23" xMax="778" yMax="811">
      <contour>
        <pt x="154" y="107" on="1"/>
        <pt x="80" y="235" on="0"/>
        <pt x="80" y="467" on="0"/>
        <pt x="187" y="618" on="0"/>
        <pt x="279" y="618" on="1"/>
        <pt x="314" y="618" on="0"/>
        <pt x="420" y="588" on="0"/>
        <pt x="457" y="588" on="0"/>
        <pt x="559" y="622" on="0"/>
        <pt x="595" y="622" on="1"/>
        <pt x="655" y="622" on="0"/>
        <pt x="702" y="590" on="1"/>
        <pt x="732" y="567" on="0"/>
        <pt x="754" y="540" on="1"/>
        <pt x="709" y="501" on="0"/>
        <pt x="664" y="429" on="0"/>
        <pt x="664" y="314" on="0"/>
        <pt x="732" y="216" on="0"/>
        <pt x="778" y="202" on="1"/>
        <pt x="757" y="138" on="0"/>
        <pt x="716" y="77" on="1"/>
        <pt x="651" y="-21" on="0"/>
        <pt x="587" y="-21" on="1"/>
        <pt x="561" y="-21" on="0"/>
        <pt x="475" y="11" on="0"/>
        <pt x="412" y="11" on="0"/>
        <pt x="328" y="-23" on="0"/>
        <pt x="304" y="-23" on="1"/>
        <pt x="227" y="-23" on="0"/>
      </contour>
      <contour>
        <pt x="589" y="790" on="1"/>
        <pt x="589" y="713" on="0"/>
        <pt x="528" y="652" on="1"/>
        <pt x="504" y="628" on="0"/>
        <pt x="465" y="612" on="0"/>
        <pt x="422" y="608" on="1"/>
        <pt x="424" y="773" on="0"/>
        <pt x="586" y="811" on="1"/>
        <pt x="589" y="802" on="0"/>
      </contour>
    </TTGlyph>
    <TTGlyph name="approxequal" xMin="88" yMin="30" xMax="695" yMax="465">
      <contour>
        <pt x="288" y="112" on="1"/>
        <pt x="213" y="112" on="1"/>
        <pt x="205" y="30" on="1"/>
        <pt x="88" y="30" on="1"/>
        <pt x="102" y="162" on="1"/>
        <pt x="225" y="229" on="1"/>
        <pt x="338" y="229" on="1"/>
        <pt x="470" y="147" on="1"/>
        <pt x="545" y="147" on="1"/>
        <pt x="554" y="229" on="1"/>
        <pt x="671" y="229" on="1"/>
        <pt x="657" y="97" on="1"/>
        <pt x="534" y="30" on="1"/>
        <pt x="421" y="30" on="1"/>
      </contour>
      <contour>
        <pt x="313" y="348" on="1"/>
        <pt x="238" y="348" on="1"/>
        <pt x="229" y="266" on="1"/>
        <pt x="112" y="266" on="1"/>
        <pt x="126" y="398" on="1"/>
        <pt x="249" y="465" on="1"/>
        <pt x="362" y="465" on="1"/>
        <pt x="495" y="383" on="1"/>
        <pt x="570" y="383" on="1"/>
        <pt x="578" y="465" on="1"/>
        <pt x="695" y="465" on="1"/>
        <pt x="681" y="333" on="1"/>
        <pt x="558" y="266" on="1"/>
        <pt x="445" y="266" on="1"/>
      </contour>
    </TTGlyph>
    <TTGlyph name="aring" xMin="81" yMin="-5" xMax="573" yMax="873">
      <contour>
        <pt x="394" y="112" on="1"/>
        <pt x="423" y="388" on="1"/>
        <pt x="252" y="388" on="1"/>
        <pt x="223" y="112" on="1"/>
      </contour>
      <contour>
        <pt x="573" y="505" on="1"/>
        <pt x="519" y="-5" on="1"/>
        <pt x="453" y="-5" on="1"/>
        <pt x="386" y="36" on="1"/>
        <pt x="311" y="-5" on="1"/>
        <pt x="190" y="-5" on="1"/>
        <pt x="81" y="62" on="1"/>
        <pt x="121" y="438" on="1"/>
        <pt x="244" y="505" on="1"/>
        <pt x="365" y="505" on="1"/>
        <pt x="431" y="464" on="1"/>
        <pt x="507" y="505" on="1"/>
      </contour>
      <contour>
        <pt x="531" y="617" on="1"/>
        <pt x="444" y="570" on="1"/>
        <pt x="283" y="570" on="1"/>
        <pt x="206" y="617" on="1"/>
        <pt x="228" y="826" on="1"/>
        <pt x="315" y="873" on="1"/>
        <pt x="476" y="873" on="1"/>
        <pt x="553" y="826" on="1"/>
      </contour>
      <contour>
        <pt x="328" y="778" on="1"/>
        <pt x="316" y="665" on="1"/>
        <pt x="431" y="665" on="1"/>
        <pt x="443" y="778" on="1"/>
      </contour>
    </TTGlyph>
    <TTGlyph name="asciicircum" xMin="84" yMin="380" xMax="606" yMax="700">
      <contour>
        <pt x="231" y="380" on="1"/>
        <pt x="84" y="380" on="1"/>
        <pt x="318" y="700" on="1"/>
        <pt x="440" y="700" on="1"/>
        <pt x="606" y="380" on="1"/>
        <pt x="459" y="380" on="1"/>
        <pt x="367" y="573" on="1"/>
        <pt x="366" y="573" on="1"/>
      </contour>
    </TTGlyph>
    <TTGlyph name="asciitilde" xMin="73" yMin="173" xMax="656" yMax="372">
      <contour>
        <pt x="273" y="255" on="1"/>
        <pt x="198" y="255" on="1"/>
        <pt x="190" y="173" on="1"/>
        <pt x="73" y="173" on="1"/>
        <pt x="87" y="305" on="1"/>
        <pt x="210" y="372" on="1"/>
        <pt x="323" y="372" on="1"/>
        <pt x="455" y="290" on="1"/>
        <pt x="530" y="290" on="1"/>
        <pt x="539" y="372" on="1"/>
        <pt x="656" y="372" on="1"/>
        <pt x="642" y="240" on="1"/>
        <pt x="519" y="173" on="1"/>
        <pt x="406" y="173" on="1"/>
      </contour>
    </TTGlyph>
    <TTGlyph name="asterisk" xMin="125" yMin="236" xMax="624" yMax="710">
      <contour>
        <pt x="364" y="376" on="1"/>
        <pt x="363" y="376" on="1"/>
        <pt x="257" y="236" on="1"/>
        <pt x="162" y="310" on="1"/>
        <pt x="282" y="440" on="1"/>
        <pt x="125" y="483" on="1"/>
        <pt x="177" y="604" on="1"/>
        <pt x="327" y="543" on="1"/>
        <pt x="335" y="710" on="1"/>
        <pt x="462" y="710" on="1"/>
        <pt x="436" y="543" on="1"/>
        <pt x="598" y="604" on="1"/>
        <pt x="624" y="483" on="1"/>
        <pt x="459" y="440" on="1"/>
        <pt x="551" y="310" on="1"/>
        <pt x="440" y="236" on="1"/>
      </contour>
    </TTGlyph>
    <TTGlyph name="at" xMin="77" yMin="-141" xMax="1002" yMax="705">
      <contour>
        <pt x="804" y="-141" on="1"/>
        <pt x="186" y="-141" on="1"/>
        <pt x="77" y="-74" on="1"/>
        <pt x="152" y="638" on="1"/>
        <pt x="275" y="705" on="1"/>
        <pt x="893" y="705" on="1"/>
        <pt x="1002" y="638" on="1"/>
        <pt x="945" y="104" on="1"/>
        <pt x="822" y="37" on="1"/>
        <pt x="612" y="37" on="1"/>
        <pt x="551" y="78" on="1"/>
        <pt x="470" y="37" on="1"/>
        <pt x="389" y="37" on="1"/>
        <pt x="287" y="104" on="1"/>
        <pt x="365" y="470" on="1"/>
        <pt x="495" y="537" on="1"/>
        <pt x="576" y="537" on="1"/>
        <pt x="638" y="496" on="1"/>
        <pt x="718" y="537" on="1"/>
        <pt x="784" y="537" on="1"/>
        <pt x="702" y="147" on="1"/>
        <pt x="820" y="147" on="1"/>
        <pt x="867" y="595" on="1"/>
        <pt x="277" y="595" on="1"/>
        <pt x="211" y="-31" on="1"/>
        <pt x="815" y="-31" on="1"/>
      </contour>
      <contour>
        <pt x="491" y="420" on="1"/>
        <pt x="436" y="154" on="1"/>
        <pt x="567" y="154" on="1"/>
        <pt x="622" y="420" on="1"/>
      </contour>
    </TTGlyph>
    <TTGlyph name="atilde" xMin="81" yMin="-5" xMax="573" yMax="764">
      <contour>
        <pt x="394" y="112" on="1"/>
        <pt x="423" y="388" on="1"/>
        <pt x="252" y="388" on="1"/>
        <pt x="223" y="112" on="1"/>
      </contour>
      <contour>
        <pt x="573" y="505" on="1"/>
        <pt x="519" y="-5" on="1"/>
        <pt x="453" y="-5" on="1"/>
        <pt x="386" y="36" on="1"/>
        <pt x="311" y="-5" on="1"/>
        <pt x="190" y="-5" on="1"/>
        <pt x="81" y="62" on="1"/>
        <pt x="121" y="438" on="1"/>
        <pt x="244" y="505" on="1"/>
        <pt x="365" y="505" on="1"/>
        <pt x="431" y="464" on="1"/>
        <pt x="507" y="505" on="1"/>
      </contour>
      <contour>
        <pt x="292" y="667" on="1"/>
        <pt x="288" y="667" on="1"/>
        <pt x="279" y="585" on="1"/>
        <pt x="181" y="585" on="1"/>
        <pt x="194" y="709" on="1"/>
        <pt x="294" y="764" on="1"/>
        <pt x="322" y="764" on="1"/>
        <pt x="455" y="682" on="1"/>
        <pt x="459" y="682" on="1"/>
        <pt x="468" y="764" on="1"/>
        <pt x="566" y="764" on="1"/>
        <pt x="553" y="640" on="1"/>
        <pt x="453" y="585" on="1"/>
        <pt x="425" y="585" on="1"/>
      </contour>
    </TTGlyph>
    <TTGlyph name="b" xMin="74" yMin="-5" xMax="576" yMax="730">
      <contour>
        <pt x="336" y="505" on="1"/>
        <pt x="467" y="505" on="1"/>
        <pt x="576" y="438" on="1"/>
        <pt x="536" y="62" on="1"/>
        <pt x="413" y="-5" on="1"/>
        <pt x="282" y="-5" on="1"/>
        <pt x="215" y="36" on="1"/>
        <pt x="140" y="-5" on="1"/>
        <pt x="74" y="-5" on="1"/>
        <pt x="151" y="730" on="1"/>
        <pt x="288" y="730" on="1"/>
        <pt x="260" y="464" on="1"/>
      </contour>
      <contour>
        <pt x="252" y="388" on="1"/>
        <pt x="223" y="112" on="1"/>
        <pt x="404" y="112" on="1"/>
        <pt x="433" y="388" on="1"/>
      </contour>
    </TTGlyph>
    <TTGlyph name="backslash" xMin="100" yMin="-20" xMax="388" yMax="720">
      <contour>
        <pt x="230" y="720" on="1"/>
        <pt x="388" y="-20" on="1"/>
        <pt x="258" y="-20" on="1"/>
        <pt x="100" y="720" on="1"/>
      </contour>
    </TTGlyph>
    <TTGlyph name="bar" xMin="93" yMin="-200" xMax="321" yMax="730">
      <contour>
        <pt x="93" y="-200" on="1"/>
        <pt x="191" y="730" on="1"/>
        <pt x="321" y="730" on="1"/>
        <pt x="223" y="-200" on="1"/>
      </contour>
    </TTGlyph>
    <TTGlyph name="braceleft" xMin="57" yMin="-200" xMax="429" yMax="730">
      <contour>
        <pt x="273" y="225" on="1"/>
        <pt x="239" y="-100" on="1"/>
        <pt x="342" y="-100" on="1"/>
        <pt x="331" y="-200" on="1"/>
        <pt x="214" y="-200" on="1"/>
        <pt x="106" y="-133" on="1"/>
        <pt x="142" y="215" on="1"/>
        <pt x="57" y="215" on="1"/>
        <pt x="68" y="315" on="1"/>
        <pt x="153" y="315" on="1"/>
        <pt x="189" y="663" on="1"/>
        <pt x="312" y="730" on="1"/>
        <pt x="429" y="730" on="1"/>
        <pt x="419" y="630" on="1"/>
        <pt x="316" y="630" on="1"/>
        <pt x="282" y="305" on="1"/>
        <pt x="210" y="266" on="1"/>
        <pt x="210" y="264" on="1"/>
      </contour>
    </TTGlyph>
    <TTGlyph name="braceright" xMin="33" yMin="-200" xMax="406" yMax="730">
      <contour>
        <pt x="147" y="-100" on="1"/>
        <pt x="181" y="225" on="1"/>
        <pt x="252" y="264" on="1"/>
        <pt x="252" y="266" on="1"/>
        <pt x="190" y="305" on="1"/>
        <pt x="224" y="630" on="1"/>
        <pt x="121" y="630" on="1"/>
        <pt x="131" y="730" on="1"/>
        <pt x="248" y="730" on="1"/>
        <pt x="357" y="663" on="1"/>
        <pt x="321" y="315" on="1"/>
        <pt x="406" y="315" on="1"/>
        <pt x="395" y="215" on="1"/>
        <pt x="310" y="215" on="1"/>
        <pt x="274" y="-133" on="1"/>
        <pt x="150" y="-200" on="1"/>
        <pt x="33" y="-200" on="1"/>
        <pt x="44" y="-100" on="1"/>
      </contour>
    </TTGlyph>
    <TTGlyph name="bracketleft" xMin="63" yMin="-200" xMax="394" yMax="730">
      <contour>
        <pt x="281" y="630" on="1"/>
        <pt x="204" y="-100" on="1"/>
        <pt x="307" y="-100" on="1"/>
        <pt x="296" y="-200" on="1"/>
        <pt x="63" y="-200" on="1"/>
        <pt x="161" y="730" on="1"/>
        <pt x="394" y="730" on="1"/>
        <pt x="384" y="630" on="1"/>
      </contour>
    </TTGlyph>
    <TTGlyph name="bracketright" xMin="33" yMin="-200" xMax="364" yMax="730">
      <contour>
        <pt x="147" y="-100" on="1"/>
        <pt x="224" y="630" on="1"/>
        <pt x="121" y="630" on="1"/>
        <pt x="131" y="730" on="1"/>
        <pt x="364" y="730" on="1"/>
        <pt x="266" y="-200" on="1"/>
        <pt x="33" y="-200" on="1"/>
        <pt x="44" y="-100" on="1"/>
      </contour>
    </TTGlyph>
    <TTGlyph name="breve" xMin="167" yMin="580" xMax="506" yMax="756">
      <contour>
        <pt x="401" y="756" on="1"/>
        <pt x="506" y="756" on="1"/>
        <pt x="492" y="627" on="1"/>
        <pt x="405" y="580" on="1"/>
        <pt x="244" y="580" on="1"/>
        <pt x="167" y="627" on="1"/>
        <pt x="181" y="756" on="1"/>
        <pt x="286" y="756" on="1"/>
        <pt x="276" y="665" on="1"/>
        <pt x="391" y="665" on="1"/>
      </contour>
    </TTGlyph>
    <TTGlyph name="brokenbar" xMin="93" yMin="-200" xMax="321" yMax="730">
      <contour>
        <pt x="93" y="-200" on="1"/>
        <pt x="136" y="202" on="1"/>
        <pt x="266" y="202" on="1"/>
        <pt x="223" y="-200" on="1"/>
      </contour>
      <contour>
        <pt x="149" y="328" on="1"/>
        <pt x="191" y="730" on="1"/>
        <pt x="321" y="730" on="1"/>
        <pt x="279" y="328" on="1"/>
      </contour>
    </TTGlyph>
    <TTGlyph name="bullet" xMin="118" yMin="157" xMax="524" yMax="537">
      <contour>
        <pt x="498" y="224" on="1"/>
        <pt x="375" y="157" on="1"/>
        <pt x="227" y="157" on="1"/>
        <pt x="118" y="224" on="1"/>
        <pt x="144" y="470" on="1"/>
        <pt x="267" y="537" on="1"/>
        <pt x="415" y="537" on="1"/>
        <pt x="524" y="470" on="1"/>
      </contour>
    </TTGlyph>
    <TTGlyph name="c" xMin="82" yMin="0" xMax="512" yMax="500">
      <contour>
        <pt x="252" y="383" on="1"/>
        <pt x="224" y="117" on="1"/>
        <pt x="472" y="117" on="1"/>
        <pt x="460" y="0" on="1"/>
        <pt x="191" y="0" on="1"/>
        <pt x="82" y="67" on="1"/>
        <pt x="120" y="433" on="1"/>
        <pt x="243" y="500" on="1"/>
        <pt x="512" y="500" on="1"/>
        <pt x="500" y="383" on="1"/>
      </contour>
    </TTGlyph>
    <TTGlyph name="caron" xMin="148" yMin="590" xMax="539" yMax="738">
      <contour>
        <pt x="424" y="590" on="1"/>
        <pt x="234" y="590" on="1"/>
        <pt x="148" y="738" on="1"/>
        <pt x="263" y="738" on="1"/>
        <pt x="336" y="658" on="1"/>
        <pt x="424" y="738" on="1"/>
        <pt x="539" y="738" on="1"/>
      </contour>
    </TTGlyph>
    <TTGlyph name="caron.cap" xMin="148" yMin="780" xMax="539" yMax="928">
      <contour>
        <pt x="424" y="780" on="1"/>
        <pt x="234" y="780" on="1"/>
        <pt x="148" y="928" on="1"/>
        <pt x="263" y="928" on="1"/>
        <pt x="336" y="848" on="1"/>
        <pt x="424" y="928" on="1"/>
        <pt x="539" y="928" on="1"/>
      </contour>
    </TTGlyph>
    <TTGlyph name="ccedilla" xMin="82" yMin="-229" xMax="512" yMax="500">
      <contour>
        <pt x="262" y="0" on="1"/>
        <pt x="191" y="0" on="1"/>
        <pt x="82" y="67" on="1"/>
        <pt x="120" y="433" on="1"/>
        <pt x="243" y="500" on="1"/>
        <pt x="512" y="500" on="1"/>
        <pt x="500" y="383" on="1"/>
        <pt x="252" y="383" on="1"/>
        <pt x="224" y="117" on="1"/>
        <pt x="472" y="117" on="1"/>
        <pt x="460" y="0" on="1"/>
        <pt x="355" y="0" on="1"/>
        <pt x="323" y="-47" on="1"/>
        <pt x="385" y="-85" on="1"/>
        <pt x="375" y="-179" on="1"/>
        <pt x="283" y="-229" on="1"/>
        <pt x="173" y="-229" on="1"/>
        <pt x="182" y="-149" on="1"/>
        <pt x="281" y="-149" on="1"/>
        <pt x="286" y="-104" on="1"/>
        <pt x="191" y="-104" on="1"/>
      </contour>
    </TTGlyph>
    <TTGlyph name="cedilla" xMin="166" yMin="-229" xMax="378" yMax="0">
      <contour>
        <pt x="255" y="0" on="1"/>
        <pt x="348" y="0" on="1"/>
        <pt x="316" y="-47" on="1"/>
        <pt x="378" y="-85" on="1"/>
        <pt x="368" y="-179" on="1"/>
        <pt x="276" y="-229" on="1"/>
        <pt x="166" y="-229" on="1"/>
        <pt x="175" y="-149" on="1"/>
        <pt x="274" y="-149" on="1"/>
        <pt x="279" y="-104" on="1"/>
        <pt x="184" y="-104" on="1"/>
      </contour>
    </TTGlyph>
    <TTGlyph name="cent" xMin="82" yMin="-118" xMax="522" yMax="618">
      <contour>
        <pt x="430" y="500" on="1"/>
        <pt x="522" y="500" on="1"/>
        <pt x="510" y="383" on="1"/>
        <pt x="252" y="383" on="1"/>
        <pt x="224" y="117" on="1"/>
        <pt x="482" y="117" on="1"/>
        <pt x="470" y="0" on="1"/>
        <pt x="378" y="0" on="1"/>
        <pt x="365" y="-118" on="1"/>
        <pt x="249" y="-118" on="1"/>
        <pt x="262" y="0" on="1"/>
        <pt x="191" y="0" on="1"/>
        <pt x="82" y="67" on="1"/>
        <pt x="120" y="433" on="1"/>
        <pt x="243" y="500" on="1"/>
        <pt x="314" y="500" on="1"/>
        <pt x="326" y="618" on="1"/>
        <pt x="442" y="618" on="1"/>
      </contour>
    </TTGlyph>
    <TTGlyph name="circumflex" xMin="132" yMin="590" xMax="523" yMax="738">
      <contour>
        <pt x="247" y="738" on="1"/>
        <pt x="437" y="738" on="1"/>
        <pt x="523" y="590" on="1"/>
        <pt x="408" y="590" on="1"/>
        <pt x="335" y="670" on="1"/>
        <pt x="247" y="590" on="1"/>
        <pt x="132" y="590" on="1"/>
      </contour>
    </TTGlyph>
    <TTGlyph name="circumflex.cap" xMin="132" yMin="780" xMax="523" yMax="928">
      <contour>
        <pt x="247" y="928" on="1"/>
        <pt x="437" y="928" on="1"/>
        <pt x="523" y="780" on="1"/>
        <pt x="408" y="780" on="1"/>
        <pt x="335" y="860" on="1"/>
        <pt x="247" y="780" on="1"/>
        <pt x="132" y="780" on="1"/>
      </contour>
    </TTGlyph>
    <TTGlyph name="colon" xMin="95" yMin="0" xMax="339" yMax="520">
      <contour>
        <pt x="95" y="0" on="1"/>
        <pt x="114" y="190" on="1"/>
        <pt x="304" y="190" on="1"/>
        <pt x="285" y="0" on="1"/>
      </contour>
      <contour>
        <pt x="129" y="330" on="1"/>
        <pt x="149" y="520" on="1"/>
        <pt x="339" y="520" on="1"/>
        <pt x="319" y="330" on="1"/>
      </contour>
    </TTGlyph>
    <TTGlyph name="comma" xMin="73" yMin="-200" xMax="304" yMax="190">
      <contour>
        <pt x="73" y="-200" on="1"/>
        <pt x="114" y="190" on="1"/>
        <pt x="304" y="190" on="1"/>
        <pt x="296" y="108" on="1"/>
        <pt x="155" y="-200" on="1"/>
      </contour>
    </TTGlyph>
    <TTGlyph name="commaaccent" xMin="100" yMin="-367" xMax="284" yMax="-55">
      <contour>
        <pt x="100" y="-367" on="1"/>
        <pt x="132" y="-55" on="1"/>
        <pt x="284" y="-55" on="1"/>
        <pt x="277" y="-121" on="1"/>
        <pt x="166" y="-367" on="1"/>
      </contour>
    </TTGlyph>
    <TTGlyph name="copyright" xMin="91" yMin="-5" xMax="832" yMax="705">
      <contour>
        <pt x="771" y="62" on="1"/>
        <pt x="648" y="-5" on="1"/>
        <pt x="200" y="-5" on="1"/>
        <pt x="91" y="62" on="1"/>
        <pt x="152" y="638" on="1"/>
        <pt x="275" y="705" on="1"/>
        <pt x="723" y="705" on="1"/>
        <pt x="832" y="638" on="1"/>
      </contour>
      <contour>
        <pt x="268" y="605" on="1"/>
        <pt x="214" y="95" on="1"/>
        <pt x="654" y="95" on="1"/>
        <pt x="708" y="605" on="1"/>
      </contour>
      <contour>
        <pt x="511" y="281" on="1"/>
        <pt x="620" y="281" on="1"/>
        <pt x="609" y="177" on="1"/>
        <pt x="532" y="135" on="1"/>
        <pt x="346" y="135" on="1"/>
        <pt x="276" y="177" on="1"/>
        <pt x="312" y="523" on="1"/>
        <pt x="391" y="565" on="1"/>
        <pt x="577" y="565" on="1"/>
        <pt x="645" y="523" on="1"/>
        <pt x="635" y="419" on="1"/>
        <pt x="526" y="419" on="1"/>
        <pt x="531" y="472" on="1"/>
        <pt x="416" y="472" on="1"/>
        <pt x="390" y="228" on="1"/>
        <pt x="505" y="228" on="1"/>
      </contour>
    </TTGlyph>
    <TTGlyph name="ct" xMin="82" yMin="0" xMax="905" yMax="663">
      <contour>
        <pt x="252" y="383" on="1"/>
        <pt x="224" y="117" on="1"/>
        <pt x="472" y="117" on="1"/>
        <pt x="460" y="0" on="1"/>
        <pt x="191" y="0" on="1"/>
        <pt x="82" y="67" on="1"/>
        <pt x="120" y="433" on="1"/>
        <pt x="243" y="500" on="1"/>
        <pt x="658" y="500" on="1"/>
        <pt x="667" y="584" on="1"/>
        <pt x="812" y="663" on="1"/>
        <pt x="795" y="500" on="1"/>
        <pt x="905" y="500" on="1"/>
        <pt x="893" y="383" on="1"/>
        <pt x="783" y="383" on="1"/>
        <pt x="755" y="117" on="1"/>
        <pt x="865" y="117" on="1"/>
        <pt x="853" y="0" on="1"/>
        <pt x="722" y="0" on="1"/>
        <pt x="613" y="67" on="1"/>
        <pt x="646" y="383" on="1"/>
      </contour>
    </TTGlyph>
    <TTGlyph name="d" xMin="81" yMin="-5" xMax="606" yMax="730">
      <contour>
        <pt x="244" y="505" on="1"/>
        <pt x="375" y="505" on="1"/>
        <pt x="441" y="464" on="1"/>
        <pt x="469" y="730" on="1"/>
        <pt x="606" y="730" on="1"/>
        <pt x="529" y="-5" on="1"/>
        <pt x="416" y="-5" on="1"/>
        <pt x="396" y="36" on="1"/>
        <pt x="321" y="-5" on="1"/>
        <pt x="190" y="-5" on="1"/>
        <pt x="81" y="62" on="1"/>
        <pt x="121" y="438" on="1"/>
      </contour>
      <contour>
        <pt x="404" y="112" on="1"/>
        <pt x="433" y="388" on="1"/>
        <pt x="252" y="388" on="1"/>
        <pt x="223" y="112" on="1"/>
      </contour>
    </TTGlyph>
    <TTGlyph name="dagger" xMin="98" yMin="-200" xMax="614" yMax="731">
      <contour>
        <pt x="403" y="424" on="1"/>
        <pt x="347" y="-200" on="1"/>
        <pt x="222" y="-200" on="1"/>
        <pt x="298" y="424" on="1"/>
        <pt x="98" y="414" on="1"/>
        <pt x="111" y="539" on="1"/>
        <pt x="309" y="529" on="1"/>
        <pt x="320" y="731" on="1"/>
        <pt x="445" y="731" on="1"/>
        <pt x="414" y="529" on="1"/>
        <pt x="614" y="539" on="1"/>
        <pt x="601" y="414" on="1"/>
      </contour>
    </TTGlyph>
    <TTGlyph name="daggerdbl" xMin="54" yMin="-200" xMax="614" yMax="731">
      <contour>
        <pt x="393" y="266" on="1"/>
        <pt x="370" y="107" on="1"/>
        <pt x="570" y="117" on="1"/>
        <pt x="557" y="-8" on="1"/>
        <pt x="359" y="2" on="1"/>
        <pt x="347" y="-200" on="1"/>
        <pt x="222" y="-200" on="1"/>
        <pt x="254" y="2" on="1"/>
        <pt x="54" y="-8" on="1"/>
        <pt x="67" y="117" on="1"/>
        <pt x="265" y="107" on="1"/>
        <pt x="274" y="266" on="1"/>
        <pt x="298" y="424" on="1"/>
        <pt x="98" y="414" on="1"/>
        <pt x="111" y="539" on="1"/>
        <pt x="309" y="529" on="1"/>
        <pt x="320" y="731" on="1"/>
        <pt x="445" y="731" on="1"/>
        <pt x="414" y="529" on="1"/>
        <pt x="614" y="539" on="1"/>
        <pt x="601" y="414" on="1"/>
        <pt x="403" y="424" on="1"/>
      </contour>
    </TTGlyph>
    <TTGlyph name="degree" xMin="109" yMin="357" xMax="497" yMax="710">
      <contour>
        <pt x="474" y="424" on="1"/>
        <pt x="351" y="357" on="1"/>
        <pt x="218" y="357" on="1"/>
        <pt x="109" y="424" on="1"/>
        <pt x="132" y="643" on="1"/>
        <pt x="255" y="710" on="1"/>
        <pt x="388" y="710" on="1"/>
        <pt x="497" y="643" on="1"/>
      </contour>
      <contour>
        <pt x="248" y="599" on="1"/>
        <pt x="235" y="468" on="1"/>
        <pt x="358" y="468" on="1"/>
        <pt x="371" y="599" on="1"/>
      </contour>
    </TTGlyph>
    <TTGlyph name="dieresis" xMin="142" yMin="595" xMax="530" yMax="730">
      <contour>
        <pt x="142" y="595" on="1"/>
        <pt x="156" y="730" on="1"/>
        <pt x="291" y="730" on="1"/>
        <pt x="277" y="595" on="1"/>
      </contour>
      <contour>
        <pt x="381" y="595" on="1"/>
        <pt x="395" y="730" on="1"/>
        <pt x="530" y="730" on="1"/>
        <pt x="516" y="595" on="1"/>
      </contour>
    </TTGlyph>
    <TTGlyph name="dieresis.cap" xMin="142" yMin="785" xMax="530" yMax="920">
      <contour>
        <pt x="142" y="785" on="1"/>
        <pt x="156" y="920" on="1"/>
        <pt x="291" y="920" on="1"/>
        <pt x="277" y="785" on="1"/>
      </contour>
      <contour>
        <pt x="381" y="785" on="1"/>
        <pt x="395" y="920" on="1"/>
        <pt x="530" y="920" on="1"/>
        <pt x="516" y="785" on="1"/>
      </contour>
    </TTGlyph>
    <TTGlyph name="divide" xMin="66" yMin="-31" xMax="599" yMax="561">
      <contour>
        <pt x="599" y="327" on="1"/>
        <pt x="586" y="203" on="1"/>
        <pt x="66" y="203" on="1"/>
        <pt x="79" y="327" on="1"/>
      </contour>
      <contour>
        <pt x="216" y="-31" on="1"/>
        <pt x="234" y="139" on="1"/>
        <pt x="404" y="139" on="1"/>
        <pt x="386" y="-31" on="1"/>
      </contour>
      <contour>
        <pt x="261" y="391" on="1"/>
        <pt x="278" y="561" on="1"/>
        <pt x="448" y="561" on="1"/>
        <pt x="431" y="391" on="1"/>
      </contour>
    </TTGlyph>
    <TTGlyph name="dollar" xMin="81" yMin="-123" xMax="637" yMax="823">
      <contour>
        <pt x="378" y="-123" on="1"/>
        <pt x="258" y="-123" on="1"/>
        <pt x="270" y="-5" on="1"/>
        <pt x="190" y="-5" on="1"/>
        <pt x="81" y="62" on="1"/>
        <pt x="95" y="195" on="1"/>
        <pt x="235" y="195" on="1"/>
        <pt x="227" y="115" on="1"/>
        <pt x="442" y="115" on="1"/>
        <pt x="460" y="288" on="1"/>
        <pt x="231" y="288" on="1"/>
        <pt x="122" y="355" on="1"/>
        <pt x="152" y="638" on="1"/>
        <pt x="275" y="705" on="1"/>
        <pt x="345" y="705" on="1"/>
        <pt x="357" y="823" on="1"/>
        <pt x="477" y="823" on="1"/>
        <pt x="465" y="705" on="1"/>
        <pt x="528" y="705" on="1"/>
        <pt x="637" y="638" on="1"/>
        <pt x="623" y="505" on="1"/>
        <pt x="483" y="505" on="1"/>
        <pt x="491" y="585" on="1"/>
        <pt x="286" y="585" on="1"/>
        <pt x="268" y="418" on="1"/>
        <pt x="497" y="418" on="1"/>
        <pt x="606" y="351" on="1"/>
        <pt x="576" y="62" on="1"/>
        <pt x="453" y="-5" on="1"/>
        <pt x="390" y="-5" on="1"/>
      </contour>
    </TTGlyph>
    <TTGlyph name="dotaccent" xMin="142" yMin="591" xMax="352" yMax="781">
      <contour>
        <pt x="142" y="591" on="1"/>
        <pt x="162" y="781" on="1"/>
        <pt x="352" y="781" on="1"/>
        <pt x="332" y="591" on="1"/>
      </contour>
    </TTGlyph>
    <TTGlyph name="dotlessi" xMin="75" yMin="0" xMax="264" yMax="500">
      <contour>
        <pt x="264" y="500" on="1"/>
        <pt x="212" y="0" on="1"/>
        <pt x="75" y="0" on="1"/>
        <pt x="127" y="500" on="1"/>
      </contour>
    </TTGlyph>
    <TTGlyph name="dotlessj" xMin="-46" yMin="-200" xMax="264" yMax="500">
      <contour>
        <pt x="264" y="500" on="1"/>
        <pt x="198" y="-133" on="1"/>
        <pt x="74" y="-200" on="1"/>
        <pt x="-46" y="-200" on="1"/>
        <pt x="-33" y="-83" on="1"/>
        <pt x="66" y="-83" on="1"/>
        <pt x="127" y="500" on="1"/>
      </contour>
    </TTGlyph>
    <TTGlyph name="e" xMin="82" yMin="0" xMax="536" yMax="505">
      <contour>
        <pt x="502" y="117" on="1"/>
        <pt x="490" y="0" on="1"/>
        <pt x="191" y="0" on="1"/>
        <pt x="82" y="67" on="1"/>
        <pt x="121" y="438" on="1"/>
        <pt x="244" y="505" on="1"/>
        <pt x="427" y="505" on="1"/>
        <pt x="536" y="438" on="1"/>
        <pt x="510" y="199" on="1"/>
        <pt x="232" y="199" on="1"/>
        <pt x="224" y="117" on="1"/>
      </contour>
      <contour>
        <pt x="252" y="388" on="1"/>
        <pt x="243" y="302" on="1"/>
        <pt x="384" y="302" on="1"/>
        <pt x="393" y="388" on="1"/>
      </contour>
    </TTGlyph>
    <TTGlyph name="eacute" xMin="82" yMin="0" xMax="536" yMax="718">
      <contour>
        <pt x="502" y="117" on="1"/>
        <pt x="490" y="0" on="1"/>
        <pt x="191" y="0" on="1"/>
        <pt x="82" y="67" on="1"/>
        <pt x="121" y="438" on="1"/>
        <pt x="244" y="505" on="1"/>
        <pt x="427" y="505" on="1"/>
        <pt x="536" y="438" on="1"/>
        <pt x="510" y="199" on="1"/>
        <pt x="232" y="199" on="1"/>
        <pt x="224" y="117" on="1"/>
      </contour>
      <contour>
        <pt x="252" y="388" on="1"/>
        <pt x="243" y="302" on="1"/>
        <pt x="384" y="302" on="1"/>
        <pt x="393" y="388" on="1"/>
      </contour>
      <contour>
        <pt x="257" y="590" on="1"/>
        <pt x="364" y="718" on="1"/>
        <pt x="534" y="718" on="1"/>
        <pt x="377" y="590" on="1"/>
      </contour>
    </TTGlyph>
    <TTGlyph name="ecircumflex" xMin="82" yMin="0" xMax="545" yMax="738">
      <component glyphName="e" x="0" y="0" flags="0x1004"/>
      <component glyphName="circumflex" x="22" y="0" flags="0x1004"/>
    </TTGlyph>
    <TTGlyph name="edieresis" xMin="82" yMin="0" xMax="553" yMax="730">
      <contour>
        <pt x="502" y="117" on="1"/>
        <pt x="490" y="0" on="1"/>
        <pt x="191" y="0" on="1"/>
        <pt x="82" y="67" on="1"/>
        <pt x="121" y="438" on="1"/>
        <pt x="244" y="505" on="1"/>
        <pt x="427" y="505" on="1"/>
        <pt x="536" y="438" on="1"/>
        <pt x="510" y="199" on="1"/>
        <pt x="232" y="199" on="1"/>
        <pt x="224" y="117" on="1"/>
      </contour>
      <contour>
        <pt x="252" y="388" on="1"/>
        <pt x="243" y="302" on="1"/>
        <pt x="384" y="302" on="1"/>
        <pt x="393" y="388" on="1"/>
      </contour>
      <contour>
        <pt x="165" y="595" on="1"/>
        <pt x="179" y="730" on="1"/>
        <pt x="314" y="730" on="1"/>
        <pt x="300" y="595" on="1"/>
      </contour>
      <contour>
        <pt x="404" y="595" on="1"/>
        <pt x="418" y="730" on="1"/>
        <pt x="553" y="730" on="1"/>
        <pt x="539" y="595" on="1"/>
      </contour>
    </TTGlyph>
    <TTGlyph name="egrave" xMin="82" yMin="0" xMax="536" yMax="718">
      <component glyphName="e" x="0" y="0" flags="0x1004"/>
      <component glyphName="grave" x="-30" y="0" flags="0x1004"/>
    </TTGlyph>
    <TTGlyph name="eight" xMin="91" yMin="-5" xMax="637" yMax="705">
      <contour>
        <pt x="237" y="115" on="1"/>
        <pt x="442" y="115" on="1"/>
        <pt x="461" y="302" on="1"/>
        <pt x="256" y="302" on="1"/>
      </contour>
      <contour>
        <pt x="269" y="422" on="1"/>
        <pt x="474" y="422" on="1"/>
        <pt x="491" y="585" on="1"/>
        <pt x="286" y="585" on="1"/>
      </contour>
      <contour>
        <pt x="453" y="-5" on="1"/>
        <pt x="184" y="-5" on="1"/>
        <pt x="91" y="62" on="1"/>
        <pt x="117" y="311" on="1"/>
        <pt x="209" y="361" on="1"/>
        <pt x="210" y="363" on="1"/>
        <pt x="128" y="413" on="1"/>
        <pt x="152" y="638" on="1"/>
        <pt x="275" y="705" on="1"/>
        <pt x="528" y="705" on="1"/>
        <pt x="637" y="638" on="1"/>
        <pt x="613" y="413" on="1"/>
        <pt x="521" y="363" on="1"/>
        <pt x="520" y="361" on="1"/>
        <pt x="602" y="311" on="1"/>
        <pt x="576" y="62" on="1"/>
      </contour>
    </TTGlyph>
    <TTGlyph name="ellipsis" xMin="95" yMin="0" xMax="966" yMax="190">
      <contour>
        <pt x="95" y="0" on="1"/>
        <pt x="114" y="190" on="1"/>
        <pt x="304" y="190" on="1"/>
        <pt x="285" y="0" on="1"/>
      </contour>
      <contour>
        <pt x="426" y="0" on="1"/>
        <pt x="445" y="190" on="1"/>
        <pt x="635" y="190" on="1"/>
        <pt x="616" y="0" on="1"/>
      </contour>
      <contour>
        <pt x="757" y="0" on="1"/>
        <pt x="776" y="190" on="1"/>
        <pt x="966" y="190" on="1"/>
        <pt x="947" y="0" on="1"/>
      </contour>
    </TTGlyph>
    <TTGlyph name="emdash" xMin="85" yMin="198" xMax="953" yMax="325">
      <contour>
        <pt x="85" y="198" on="1"/>
        <pt x="99" y="325" on="1"/>
        <pt x="953" y="325" on="1"/>
        <pt x="939" y="198" on="1"/>
      </contour>
    </TTGlyph>
    <TTGlyph name="endash" xMin="85" yMin="198" xMax="675" yMax="325">
      <contour>
        <pt x="85" y="198" on="1"/>
        <pt x="99" y="325" on="1"/>
        <pt x="675" y="325" on="1"/>
        <pt x="661" y="198" on="1"/>
      </contour>
    </TTGlyph>
    <TTGlyph name="equal" xMin="92" yMin="74" xMax="649" yMax="426">
      <contour>
        <pt x="625" y="198" on="1"/>
        <pt x="612" y="74" on="1"/>
        <pt x="92" y="74" on="1"/>
        <pt x="105" y="198" on="1"/>
      </contour>
      <contour>
        <pt x="649" y="426" on="1"/>
        <pt x="636" y="302" on="1"/>
        <pt x="116" y="302" on="1"/>
        <pt x="129" y="426" on="1"/>
      </contour>
    </TTGlyph>
    <TTGlyph name="eth" xMin="91" yMin="-5" xMax="676" yMax="705">
      <contour>
        <pt x="617" y="544" on="1"/>
        <pt x="676" y="544" on="1"/>
        <pt x="666" y="450" on="1"/>
        <pt x="607" y="450" on="1"/>
        <pt x="566" y="62" on="1"/>
        <pt x="443" y="-5" on="1"/>
        <pt x="200" y="-5" on="1"/>
        <pt x="91" y="62" on="1"/>
        <pt x="121" y="348" on="1"/>
        <pt x="244" y="415" on="1"/>
        <pt x="392" y="415" on="1"/>
        <pt x="459" y="374" on="1"/>
        <pt x="467" y="450" on="1"/>
        <pt x="360" y="450" on="1"/>
        <pt x="370" y="544" on="1"/>
        <pt x="477" y="544" on="1"/>
        <pt x="481" y="585" on="1"/>
        <pt x="262" y="585" on="1"/>
        <pt x="275" y="705" on="1"/>
        <pt x="518" y="705" on="1"/>
        <pt x="627" y="638" on="1"/>
      </contour>
      <contour>
        <pt x="432" y="115" on="1"/>
        <pt x="451" y="295" on="1"/>
        <pt x="256" y="295" on="1"/>
        <pt x="237" y="115" on="1"/>
      </contour>
    </TTGlyph>
    <TTGlyph name="exclam" xMin="95" yMin="0" xMax="352" yMax="730">
      <contour>
        <pt x="95" y="0" on="1"/>
        <pt x="114" y="190" on="1"/>
        <pt x="304" y="190" on="1"/>
        <pt x="285" y="0" on="1"/>
      </contour>
      <contour>
        <pt x="160" y="288" on="1"/>
        <pt x="180" y="730" on="1"/>
        <pt x="352" y="730" on="1"/>
        <pt x="280" y="288" on="1"/>
      </contour>
    </TTGlyph>
    <TTGlyph name="exclamdown" xMin="79" yMin="-230" xMax="337" yMax="500">
      <contour>
        <pt x="127" y="310" on="1"/>
        <pt x="147" y="500" on="1"/>
        <pt x="337" y="500" on="1"/>
        <pt x="317" y="310" on="1"/>
      </contour>
      <contour>
        <pt x="79" y="-230" on="1"/>
        <pt x="152" y="212" on="1"/>
        <pt x="272" y="212" on="1"/>
        <pt x="251" y="-230" on="1"/>
      </contour>
    </TTGlyph>
    <TTGlyph name="f" xMin="75" yMin="0" xMax="450" yMax="730">
      <contour>
        <pt x="75" y="383" on="1"/>
        <pt x="87" y="500" on="1"/>
        <pt x="179" y="500" on="1"/>
        <pt x="196" y="663" on="1"/>
        <pt x="319" y="730" on="1"/>
        <pt x="450" y="730" on="1"/>
        <pt x="438" y="613" on="1"/>
        <pt x="328" y="613" on="1"/>
        <pt x="316" y="500" on="1"/>
        <pt x="426" y="500" on="1"/>
        <pt x="414" y="383" on="1"/>
        <pt x="304" y="383" on="1"/>
        <pt x="264" y="0" on="1"/>
        <pt x="127" y="0" on="1"/>
        <pt x="167" y="383" on="1"/>
      </contour>
    </TTGlyph>
    <TTGlyph name="ffi" xMin="75" yMin="0" xMax="1111" yMax="730">
      <contour>
        <pt x="304" y="383" on="1"/>
        <pt x="264" y="0" on="1"/>
        <pt x="127" y="0" on="1"/>
        <pt x="167" y="383" on="1"/>
        <pt x="75" y="383" on="1"/>
        <pt x="87" y="500" on="1"/>
        <pt x="179" y="500" on="1"/>
        <pt x="196" y="663" on="1"/>
        <pt x="319" y="730" on="1"/>
        <pt x="500" y="730" on="1"/>
        <pt x="488" y="613" on="1"/>
        <pt x="328" y="613" on="1"/>
        <pt x="316" y="500" on="1"/>
        <pt x="568" y="500" on="1"/>
        <pt x="585" y="663" on="1"/>
        <pt x="708" y="730" on="1"/>
        <pt x="1111" y="730" on="1"/>
        <pt x="1099" y="613" on="1"/>
        <pt x="717" y="613" on="1"/>
        <pt x="705" y="500" on="1"/>
        <pt x="865" y="500" on="1"/>
        <pt x="853" y="383" on="1"/>
        <pt x="693" y="383" on="1"/>
        <pt x="653" y="0" on="1"/>
        <pt x="516" y="0" on="1"/>
        <pt x="556" y="383" on="1"/>
      </contour>
      <contour>
        <pt x="1082" y="500" on="1"/>
        <pt x="1030" y="0" on="1"/>
        <pt x="893" y="0" on="1"/>
        <pt x="945" y="500" on="1"/>
      </contour>
    </TTGlyph>
    <TTGlyph name="ffl" xMin="75" yMin="0" xMax="1142" yMax="730">
      <contour>
        <pt x="1009" y="0" on="1"/>
        <pt x="900" y="67" on="1"/>
        <pt x="957" y="613" on="1"/>
        <pt x="737" y="613" on="1"/>
        <pt x="725" y="500" on="1"/>
        <pt x="855" y="500" on="1"/>
        <pt x="843" y="383" on="1"/>
        <pt x="713" y="383" on="1"/>
        <pt x="673" y="0" on="1"/>
        <pt x="536" y="0" on="1"/>
        <pt x="576" y="383" on="1"/>
        <pt x="304" y="383" on="1"/>
        <pt x="264" y="0" on="1"/>
        <pt x="127" y="0" on="1"/>
        <pt x="167" y="383" on="1"/>
        <pt x="75" y="383" on="1"/>
        <pt x="87" y="500" on="1"/>
        <pt x="179" y="500" on="1"/>
        <pt x="196" y="663" on="1"/>
        <pt x="319" y="730" on="1"/>
        <pt x="510" y="730" on="1"/>
        <pt x="498" y="613" on="1"/>
        <pt x="328" y="613" on="1"/>
        <pt x="316" y="500" on="1"/>
        <pt x="588" y="500" on="1"/>
        <pt x="605" y="663" on="1"/>
        <pt x="728" y="730" on="1"/>
        <pt x="1106" y="730" on="1"/>
        <pt x="1042" y="117" on="1"/>
        <pt x="1142" y="117" on="1"/>
        <pt x="1130" y="0" on="1"/>
      </contour>
    </TTGlyph>
    <TTGlyph name="fi" xMin="75" yMin="0" xMax="702" yMax="730">
      <contour>
        <pt x="75" y="383" on="1"/>
        <pt x="87" y="500" on="1"/>
        <pt x="179" y="500" on="1"/>
        <pt x="196" y="663" on="1"/>
        <pt x="319" y="730" on="1"/>
        <pt x="702" y="730" on="1"/>
        <pt x="690" y="613" on="1"/>
        <pt x="328" y="613" on="1"/>
        <pt x="316" y="500" on="1"/>
        <pt x="456" y="500" on="1"/>
        <pt x="444" y="383" on="1"/>
        <pt x="304" y="383" on="1"/>
        <pt x="264" y="0" on="1"/>
        <pt x="127" y="0" on="1"/>
        <pt x="167" y="383" on="1"/>
      </contour>
      <contour>
        <pt x="673" y="500" on="1"/>
        <pt x="621" y="0" on="1"/>
        <pt x="484" y="0" on="1"/>
        <pt x="536" y="500" on="1"/>
      </contour>
    </TTGlyph>
    <TTGlyph name="five" xMin="91" yMin="-5" xMax="633" yMax="700">
      <contour>
        <pt x="305" y="580" on="1"/>
        <pt x="291" y="446" on="1"/>
        <pt x="500" y="446" on="1"/>
        <pt x="609" y="379" on="1"/>
        <pt x="576" y="62" on="1"/>
        <pt x="453" y="-5" on="1"/>
        <pt x="200" y="-5" on="1"/>
        <pt x="91" y="62" on="1"/>
        <pt x="106" y="205" on="1"/>
        <pt x="246" y="205" on="1"/>
        <pt x="237" y="115" on="1"/>
        <pt x="442" y="115" on="1"/>
        <pt x="464" y="326" on="1"/>
        <pt x="139" y="326" on="1"/>
        <pt x="178" y="700" on="1"/>
        <pt x="633" y="700" on="1"/>
        <pt x="620" y="580" on="1"/>
      </contour>
    </TTGlyph>
    <TTGlyph name="fj" xMin="75" yMin="-200" xMax="702" yMax="730">
      <contour>
        <pt x="673" y="500" on="1"/>
        <pt x="607" y="-133" on="1"/>
        <pt x="483" y="-200" on="1"/>
        <pt x="362" y="-200" on="1"/>
        <pt x="375" y="-83" on="1"/>
        <pt x="475" y="-83" on="1"/>
        <pt x="536" y="500" on="1"/>
      </contour>
      <contour>
        <pt x="75" y="383" on="1"/>
        <pt x="87" y="500" on="1"/>
        <pt x="179" y="500" on="1"/>
        <pt x="196" y="663" on="1"/>
        <pt x="319" y="730" on="1"/>
        <pt x="702" y="730" on="1"/>
        <pt x="690" y="613" on="1"/>
        <pt x="328" y="613" on="1"/>
        <pt x="316" y="500" on="1"/>
        <pt x="426" y="500" on="1"/>
        <pt x="414" y="383" on="1"/>
        <pt x="304" y="383" on="1"/>
        <pt x="264" y="0" on="1"/>
        <pt x="127" y="0" on="1"/>
        <pt x="167" y="383" on="1"/>
      </contour>
    </TTGlyph>
    <TTGlyph name="fl" xMin="75" yMin="0" xMax="733" yMax="730">
      <contour>
        <pt x="600" y="0" on="1"/>
        <pt x="491" y="67" on="1"/>
        <pt x="548" y="613" on="1"/>
        <pt x="328" y="613" on="1"/>
        <pt x="316" y="500" on="1"/>
        <pt x="456" y="500" on="1"/>
        <pt x="444" y="383" on="1"/>
        <pt x="304" y="383" on="1"/>
        <pt x="264" y="0" on="1"/>
        <pt x="127" y="0" on="1"/>
        <pt x="167" y="383" on="1"/>
        <pt x="75" y="383" on="1"/>
        <pt x="87" y="500" on="1"/>
        <pt x="179" y="500" on="1"/>
        <pt x="196" y="663" on="1"/>
        <pt x="319" y="730" on="1"/>
        <pt x="697" y="730" on="1"/>
        <pt x="633" y="117" on="1"/>
        <pt x="733" y="117" on="1"/>
        <pt x="721" y="0" on="1"/>
      </contour>
    </TTGlyph>
    <TTGlyph name="florin" xMin="-3" yMin="-199" xMax="450" yMax="730">
      <contour>
        <pt x="118" y="-82" on="1"/>
        <pt x="167" y="383" on="1"/>
        <pt x="75" y="383" on="1"/>
        <pt x="87" y="500" on="1"/>
        <pt x="179" y="500" on="1"/>
        <pt x="196" y="663" on="1"/>
        <pt x="319" y="730" on="1"/>
        <pt x="450" y="730" on="1"/>
        <pt x="438" y="613" on="1"/>
        <pt x="328" y="613" on="1"/>
        <pt x="316" y="500" on="1"/>
        <pt x="426" y="500" on="1"/>
        <pt x="414" y="383" on="1"/>
        <pt x="304" y="383" on="1"/>
        <pt x="250" y="-132" on="1"/>
        <pt x="127" y="-199" on="1"/>
        <pt x="-3" y="-199" on="1"/>
        <pt x="8" y="-82" on="1"/>
      </contour>
    </TTGlyph>
    <TTGlyph name="four" xMin="51" yMin="0" xMax="619" yMax="700">
      <contour>
        <pt x="521" y="155" on="1"/>
        <pt x="505" y="0" on="1"/>
        <pt x="367" y="0" on="1"/>
        <pt x="383" y="155" on="1"/>
        <pt x="51" y="155" on="1"/>
        <pt x="61" y="255" on="1"/>
        <pt x="455" y="700" on="1"/>
        <pt x="578" y="700" on="1"/>
        <pt x="533" y="268" on="1"/>
        <pt x="619" y="268" on="1"/>
        <pt x="607" y="155" on="1"/>
      </contour>
      <contour>
        <pt x="218" y="268" on="1"/>
        <pt x="395" y="268" on="1"/>
        <pt x="418" y="494" on="1"/>
        <pt x="416" y="494" on="1"/>
        <pt x="218" y="270" on="1"/>
      </contour>
    </TTGlyph>
    <TTGlyph name="fraction" xMin="3" yMin="-10" xMax="722" yMax="710">
      <contour>
        <pt x="592" y="710" on="1"/>
        <pt x="722" y="710" on="1"/>
        <pt x="133" y="-10" on="1"/>
        <pt x="3" y="-10" on="1"/>
      </contour>
    </TTGlyph>
    <TTGlyph name="g" xMin="83" yMin="-200" xMax="583" yMax="505">
      <contour>
        <pt x="516" y="-133" on="1"/>
        <pt x="392" y="-200" on="1"/>
        <pt x="120" y="-200" on="1"/>
        <pt x="133" y="-83" on="1"/>
        <pt x="384" y="-83" on="1"/>
        <pt x="398" y="56" on="1"/>
        <pt x="323" y="15" on="1"/>
        <pt x="192" y="15" on="1"/>
        <pt x="83" y="82" on="1"/>
        <pt x="121" y="438" on="1"/>
        <pt x="244" y="505" on="1"/>
        <pt x="375" y="505" on="1"/>
        <pt x="441" y="464" on="1"/>
        <pt x="517" y="505" on="1"/>
        <pt x="583" y="505" on="1"/>
      </contour>
      <contour>
        <pt x="406" y="132" on="1"/>
        <pt x="433" y="388" on="1"/>
        <pt x="252" y="388" on="1"/>
        <pt x="225" y="132" on="1"/>
      </contour>
    </TTGlyph>
    <TTGlyph name="g.alt" xMin="40" yMin="-205" xMax="582" yMax="500">
      <contour>
        <pt x="40" y="-138" on="1"/>
        <pt x="47" y="-68" on="1"/>
        <pt x="171" y="0" on="1"/>
        <pt x="80" y="56" on="1"/>
        <pt x="90" y="146" on="1"/>
        <pt x="165" y="187" on="1"/>
        <pt x="98" y="228" on="1"/>
        <pt x="120" y="433" on="1"/>
        <pt x="243" y="500" on="1"/>
        <pt x="582" y="500" on="1"/>
        <pt x="575" y="436" on="1"/>
        <pt x="479" y="383" on="1"/>
        <pt x="536" y="347" on="1"/>
        <pt x="525" y="239" on="1"/>
        <pt x="402" y="172" on="1"/>
        <pt x="230" y="172" on="1"/>
        <pt x="223" y="107" on="1"/>
        <pt x="425" y="107" on="1"/>
        <pt x="534" y="40" on="1"/>
        <pt x="515" y="-138" on="1"/>
        <pt x="392" y="-205" on="1"/>
        <pt x="149" y="-205" on="1"/>
      </contour>
      <contour>
        <pt x="393" y="0" on="1"/>
        <pt x="192" y="0" on="1"/>
        <pt x="182" y="-90" on="1"/>
        <pt x="383" y="-90" on="1"/>
      </contour>
      <contour>
        <pt x="252" y="388" on="1"/>
        <pt x="241" y="284" on="1"/>
        <pt x="392" y="284" on="1"/>
        <pt x="403" y="388" on="1"/>
      </contour>
    </TTGlyph>
    <TTGlyph name="germandbls" xMin="56" yMin="-200" xMax="636" yMax="700">
      <contour>
        <pt x="56" y="302" on="1"/>
        <pt x="69" y="422" on="1"/>
        <pt x="159" y="422" on="1"/>
        <pt x="181" y="633" on="1"/>
        <pt x="304" y="700" on="1"/>
        <pt x="527" y="700" on="1"/>
        <pt x="636" y="633" on="1"/>
        <pt x="613" y="413" on="1"/>
        <pt x="534" y="370" on="1"/>
        <pt x="632" y="311" on="1"/>
        <pt x="607" y="67" on="1"/>
        <pt x="484" y="0" on="1"/>
        <pt x="318" y="0" on="1"/>
        <pt x="330" y="120" on="1"/>
        <pt x="472" y="120" on="1"/>
        <pt x="491" y="302" on="1"/>
        <pt x="349" y="302" on="1"/>
        <pt x="362" y="422" on="1"/>
        <pt x="474" y="422" on="1"/>
        <pt x="490" y="580" on="1"/>
        <pt x="315" y="580" on="1"/>
        <pt x="233" y="-200" on="1"/>
        <pt x="93" y="-200" on="1"/>
        <pt x="146" y="302" on="1"/>
      </contour>
    </TTGlyph>
    <TTGlyph name="grave" xMin="240" yMin="590" xMax="491" yMax="718">
      <contour>
        <pt x="410" y="718" on="1"/>
        <pt x="491" y="590" on="1"/>
        <pt x="371" y="590" on="1"/>
        <pt x="240" y="718" on="1"/>
      </contour>
    </TTGlyph>
    <TTGlyph name="grave.cap" xMin="240" yMin="780" xMax="491" yMax="908">
      <contour>
        <pt x="410" y="908" on="1"/>
        <pt x="491" y="780" on="1"/>
        <pt x="371" y="780" on="1"/>
        <pt x="240" y="908" on="1"/>
      </contour>
    </TTGlyph>
    <TTGlyph name="greater" xMin="84" yMin="-1" xMax="638" yMax="501">
      <contour>
        <pt x="123" y="367" on="1"/>
        <pt x="137" y="501" on="1"/>
        <pt x="638" y="321" on="1"/>
        <pt x="623" y="179" on="1"/>
        <pt x="84" y="-1" on="1"/>
        <pt x="98" y="133" on="1"/>
        <pt x="466" y="249" on="1"/>
        <pt x="466" y="251" on="1"/>
      </contour>
    </TTGlyph>
    <TTGlyph name="greaterequal" xMin="85" yMin="0" xMax="652" yMax="579">
      <contour>
        <pt x="132" y="451" on="1"/>
        <pt x="145" y="579" on="1"/>
        <pt x="652" y="449" on="1"/>
        <pt x="635" y="291" on="1"/>
        <pt x="101" y="161" on="1"/>
        <pt x="115" y="289" on="1"/>
        <pt x="480" y="369" on="1"/>
        <pt x="480" y="371" on="1"/>
      </contour>
      <contour>
        <pt x="85" y="0" on="1"/>
        <pt x="98" y="124" on="1"/>
        <pt x="618" y="124" on="1"/>
        <pt x="605" y="0" on="1"/>
      </contour>
    </TTGlyph>
    <TTGlyph name="guillemotleft" xMin="104" yMin="0" xMax="657" yMax="502">
      <contour>
        <pt x="359" y="137" on="1"/>
        <pt x="345" y="0" on="1"/>
        <pt x="104" y="190" on="1"/>
        <pt x="117" y="312" on="1"/>
        <pt x="397" y="502" on="1"/>
        <pt x="383" y="365" on="1"/>
        <pt x="208" y="252" on="1"/>
        <pt x="208" y="251" on="1"/>
      </contour>
      <contour>
        <pt x="619" y="137" on="1"/>
        <pt x="605" y="0" on="1"/>
        <pt x="364" y="190" on="1"/>
        <pt x="377" y="312" on="1"/>
        <pt x="657" y="502" on="1"/>
        <pt x="643" y="365" on="1"/>
        <pt x="468" y="252" on="1"/>
        <pt x="468" y="251" on="1"/>
      </contour>
    </TTGlyph>
    <TTGlyph name="guillemotright" xMin="85" yMin="0" xMax="637" yMax="502">
      <contour>
        <pt x="345" y="0" on="1"/>
        <pt x="359" y="137" on="1"/>
        <pt x="534" y="251" on="1"/>
        <pt x="534" y="252" on="1"/>
        <pt x="383" y="365" on="1"/>
        <pt x="397" y="502" on="1"/>
        <pt x="637" y="312" on="1"/>
        <pt x="624" y="190" on="1"/>
      </contour>
      <contour>
        <pt x="85" y="0" on="1"/>
        <pt x="99" y="137" on="1"/>
        <pt x="274" y="251" on="1"/>
        <pt x="274" y="252" on="1"/>
        <pt x="123" y="365" on="1"/>
        <pt x="137" y="502" on="1"/>
        <pt x="377" y="312" on="1"/>
        <pt x="364" y="190" on="1"/>
      </contour>
    </TTGlyph>
    <TTGlyph name="guilsinglleft" xMin="104" yMin="0" xMax="397" yMax="502">
      <contour>
        <pt x="359" y="137" on="1"/>
        <pt x="345" y="0" on="1"/>
        <pt x="104" y="190" on="1"/>
        <pt x="117" y="312" on="1"/>
        <pt x="397" y="502" on="1"/>
        <pt x="383" y="365" on="1"/>
        <pt x="208" y="252" on="1"/>
        <pt x="208" y="251" on="1"/>
      </contour>
    </TTGlyph>
    <TTGlyph name="guilsinglright" xMin="85" yMin="0" xMax="377" yMax="502">
      <contour>
        <pt x="85" y="0" on="1"/>
        <pt x="99" y="137" on="1"/>
        <pt x="274" y="251" on="1"/>
        <pt x="274" y="252" on="1"/>
        <pt x="123" y="365" on="1"/>
        <pt x="137" y="502" on="1"/>
        <pt x="377" y="312" on="1"/>
        <pt x="364" y="190" on="1"/>
      </contour>
    </TTGlyph>
    <TTGlyph name="h" xMin="75" yMin="0" xMax="576" yMax="730">
      <contour>
        <pt x="212" y="0" on="1"/>
        <pt x="75" y="0" on="1"/>
        <pt x="151" y="730" on="1"/>
        <pt x="288" y="730" on="1"/>
        <pt x="260" y="464" on="1"/>
        <pt x="336" y="505" on="1"/>
        <pt x="467" y="505" on="1"/>
        <pt x="576" y="438" on="1"/>
        <pt x="530" y="0" on="1"/>
        <pt x="393" y="0" on="1"/>
        <pt x="433" y="388" on="1"/>
        <pt x="252" y="388" on="1"/>
      </contour>
    </TTGlyph>
    <TTGlyph name="hbar" xMin="69" yMin="0" xMax="576" yMax="730">
      <contour>
        <pt x="212" y="0" on="1"/>
        <pt x="75" y="0" on="1"/>
        <pt x="134" y="565" on="1"/>
        <pt x="69" y="565" on="1"/>
        <pt x="79" y="659" on="1"/>
        <pt x="144" y="659" on="1"/>
        <pt x="151" y="730" on="1"/>
        <pt x="288" y="730" on="1"/>
        <pt x="281" y="659" on="1"/>
        <pt x="429" y="659" on="1"/>
        <pt x="419" y="565" on="1"/>
        <pt x="271" y="565" on="1"/>
        <pt x="260" y="464" on="1"/>
        <pt x="336" y="505" on="1"/>
        <pt x="467" y="505" on="1"/>
        <pt x="576" y="438" on="1"/>
        <pt x="530" y="0" on="1"/>
        <pt x="393" y="0" on="1"/>
        <pt x="433" y="388" on="1"/>
        <pt x="252" y="388" on="1"/>
      </contour>
    </TTGlyph>
    <TTGlyph name="hungarumlaut" xMin="128" yMin="590" xMax="624" yMax="718">
      <contour>
        <pt x="128" y="590" on="1"/>
        <pt x="235" y="718" on="1"/>
        <pt x="405" y="718" on="1"/>
        <pt x="248" y="590" on="1"/>
      </contour>
      <contour>
        <pt x="347" y="590" on="1"/>
        <pt x="454" y="718" on="1"/>
        <pt x="624" y="718" on="1"/>
        <pt x="467" y="590" on="1"/>
      </contour>
    </TTGlyph>
    <TTGlyph name="hyphen" xMin="85" yMin="198" xMax="417" yMax="325">
      <contour>
        <pt x="85" y="198" on="1"/>
        <pt x="99" y="325" on="1"/>
        <pt x="417" y="325" on="1"/>
        <pt x="403" y="198" on="1"/>
      </contour>
    </TTGlyph>
    <TTGlyph name="i" xMin="75" yMin="0" xMax="293" yMax="730">
      <contour>
        <pt x="264" y="500" on="1"/>
        <pt x="212" y="0" on="1"/>
        <pt x="75" y="0" on="1"/>
        <pt x="127" y="500" on="1"/>
      </contour>
      <contour>
        <pt x="132" y="593" on="1"/>
        <pt x="146" y="730" on="1"/>
        <pt x="293" y="730" on="1"/>
        <pt x="279" y="593" on="1"/>
      </contour>
    </TTGlyph>
    <TTGlyph name="iacute" xMin="75" yMin="0" xMax="402" yMax="718">
      <contour>
        <pt x="264" y="500" on="1"/>
        <pt x="212" y="0" on="1"/>
        <pt x="75" y="0" on="1"/>
        <pt x="127" y="500" on="1"/>
      </contour>
      <contour>
        <pt x="125" y="590" on="1"/>
        <pt x="232" y="718" on="1"/>
        <pt x="402" y="718" on="1"/>
        <pt x="245" y="590" on="1"/>
      </contour>
    </TTGlyph>
    <TTGlyph name="icircumflex" xMin="10" yMin="0" xMax="401" yMax="738">
      <component glyphName="dotlessi" x="0" y="0" flags="0x1004"/>
      <component glyphName="circumflex" x="-122" y="0" flags="0x1004"/>
    </TTGlyph>
    <TTGlyph name="idieresis" xMin="19" yMin="0" xMax="407" yMax="730">
      <contour>
        <pt x="264" y="500" on="1"/>
        <pt x="212" y="0" on="1"/>
        <pt x="75" y="0" on="1"/>
        <pt x="127" y="500" on="1"/>
      </contour>
      <contour>
        <pt x="19" y="595" on="1"/>
        <pt x="33" y="730" on="1"/>
        <pt x="168" y="730" on="1"/>
        <pt x="154" y="595" on="1"/>
      </contour>
      <contour>
        <pt x="258" y="595" on="1"/>
        <pt x="272" y="730" on="1"/>
        <pt x="407" y="730" on="1"/>
        <pt x="393" y="595" on="1"/>
      </contour>
    </TTGlyph>
    <TTGlyph name="igrave" xMin="35" yMin="0" xMax="286" yMax="718">
      <component glyphName="dotlessi" x="0" y="0" flags="0x1004"/>
      <component glyphName="grave" x="-205" y="0" flags="0x1004"/>
    </TTGlyph>
    <TTGlyph name="ij" xMin="75" yMin="-200" xMax="580" yMax="730">
      <contour>
        <pt x="264" y="500" on="1"/>
        <pt x="212" y="0" on="1"/>
        <pt x="75" y="0" on="1"/>
        <pt x="127" y="500" on="1"/>
      </contour>
      <contour>
        <pt x="132" y="593" on="1"/>
        <pt x="146" y="730" on="1"/>
        <pt x="293" y="730" on="1"/>
        <pt x="279" y="593" on="1"/>
      </contour>
      <contour>
        <pt x="419" y="593" on="1"/>
        <pt x="433" y="730" on="1"/>
        <pt x="580" y="730" on="1"/>
        <pt x="566" y="593" on="1"/>
      </contour>
      <contour>
        <pt x="551" y="500" on="1"/>
        <pt x="485" y="-133" on="1"/>
        <pt x="361" y="-200" on="1"/>
        <pt x="241" y="-200" on="1"/>
        <pt x="254" y="-83" on="1"/>
        <pt x="353" y="-83" on="1"/>
        <pt x="414" y="500" on="1"/>
      </contour>
    </TTGlyph>
    <TTGlyph name="infinity" xMin="102" yMin="103" xMax="862" yMax="518">
      <contour>
        <pt x="266" y="398" on="1"/>
        <pt x="248" y="223" on="1"/>
        <pt x="403" y="223" on="1"/>
        <pt x="421" y="398" on="1"/>
      </contour>
      <contour>
        <pt x="561" y="398" on="1"/>
        <pt x="543" y="223" on="1"/>
        <pt x="698" y="223" on="1"/>
        <pt x="716" y="398" on="1"/>
      </contour>
      <contour>
        <pt x="832" y="170" on="1"/>
        <pt x="709" y="103" on="1"/>
        <pt x="576" y="103" on="1"/>
        <pt x="467" y="170" on="1"/>
        <pt x="344" y="103" on="1"/>
        <pt x="211" y="103" on="1"/>
        <pt x="102" y="170" on="1"/>
        <pt x="132" y="451" on="1"/>
        <pt x="255" y="518" on="1"/>
        <pt x="388" y="518" on="1"/>
        <pt x="497" y="451" on="1"/>
        <pt x="620" y="518" on="1"/>
        <pt x="753" y="518" on="1"/>
        <pt x="862" y="451" on="1"/>
      </contour>
    </TTGlyph>
    <TTGlyph name="itilde" xMin="6" yMin="0" xMax="391" yMax="764">
      <contour>
        <pt x="264" y="500" on="1"/>
        <pt x="212" y="0" on="1"/>
        <pt x="75" y="0" on="1"/>
        <pt x="127" y="500" on="1"/>
      </contour>
      <contour>
        <pt x="117" y="667" on="1"/>
        <pt x="113" y="667" on="1"/>
        <pt x="104" y="585" on="1"/>
        <pt x="6" y="585" on="1"/>
        <pt x="19" y="709" on="1"/>
        <pt x="119" y="764" on="1"/>
        <pt x="147" y="764" on="1"/>
        <pt x="280" y="682" on="1"/>
        <pt x="284" y="682" on="1"/>
        <pt x="293" y="764" on="1"/>
        <pt x="391" y="764" on="1"/>
        <pt x="378" y="640" on="1"/>
        <pt x="278" y="585" on="1"/>
        <pt x="250" y="585" on="1"/>
      </contour>
    </TTGlyph>
    <TTGlyph name="j" xMin="-46" yMin="-200" xMax="293" yMax="730">
      <contour>
        <pt x="132" y="593" on="1"/>
        <pt x="146" y="730" on="1"/>
        <pt x="293" y="730" on="1"/>
        <pt x="279" y="593" on="1"/>
      </contour>
      <contour>
        <pt x="264" y="500" on="1"/>
        <pt x="198" y="-133" on="1"/>
        <pt x="74" y="-200" on="1"/>
        <pt x="-46" y="-200" on="1"/>
        <pt x="-33" y="-83" on="1"/>
        <pt x="66" y="-83" on="1"/>
        <pt x="127" y="500" on="1"/>
      </contour>
    </TTGlyph>
    <TTGlyph name="jcircumflex" xMin="-46" yMin="-200" xMax="402" yMax="738">
      <contour>
        <pt x="264" y="500" on="1"/>
        <pt x="198" y="-133" on="1"/>
        <pt x="74" y="-200" on="1"/>
        <pt x="-46" y="-200" on="1"/>
        <pt x="-33" y="-83" on="1"/>
        <pt x="66" y="-83" on="1"/>
        <pt x="127" y="500" on="1"/>
      </contour>
      <contour>
        <pt x="126" y="738" on="1"/>
        <pt x="316" y="738" on="1"/>
        <pt x="402" y="590" on="1"/>
        <pt x="287" y="590" on="1"/>
        <pt x="214" y="670" on="1"/>
        <pt x="126" y="590" on="1"/>
        <pt x="11" y="590" on="1"/>
      </contour>
    </TTGlyph>
    <TTGlyph name="k" xMin="75" yMin="0" xMax="578" yMax="730">
      <contour>
        <pt x="288" y="730" on="1"/>
        <pt x="243" y="299" on="1"/>
        <pt x="245" y="299" on="1"/>
        <pt x="421" y="500" on="1"/>
        <pt x="578" y="500" on="1"/>
        <pt x="376" y="277" on="1"/>
        <pt x="556" y="0" on="1"/>
        <pt x="397" y="0" on="1"/>
        <pt x="285" y="177" on="1"/>
        <pt x="223" y="108" on="1"/>
        <pt x="212" y="0" on="1"/>
        <pt x="75" y="0" on="1"/>
        <pt x="151" y="730" on="1"/>
      </contour>
    </TTGlyph>
    <TTGlyph name="kcommaaccent" xMin="75" yMin="-367" xMax="578" yMax="730">
      <contour>
        <pt x="288" y="730" on="1"/>
        <pt x="243" y="299" on="1"/>
        <pt x="245" y="299" on="1"/>
        <pt x="421" y="500" on="1"/>
        <pt x="578" y="500" on="1"/>
        <pt x="376" y="277" on="1"/>
        <pt x="556" y="0" on="1"/>
        <pt x="397" y="0" on="1"/>
        <pt x="285" y="177" on="1"/>
        <pt x="223" y="108" on="1"/>
        <pt x="212" y="0" on="1"/>
        <pt x="75" y="0" on="1"/>
        <pt x="151" y="730" on="1"/>
      </contour>
      <contour>
        <pt x="183" y="-367" on="1"/>
        <pt x="215" y="-55" on="1"/>
        <pt x="367" y="-55" on="1"/>
        <pt x="360" y="-121" on="1"/>
        <pt x="249" y="-367" on="1"/>
      </contour>
    </TTGlyph>
    <TTGlyph name="kgreenlandic" xMin="75" yMin="0" xMax="578" yMax="500">
      <contour>
        <pt x="263" y="500" on="1"/>
        <pt x="243" y="299" on="1"/>
        <pt x="245" y="299" on="1"/>
        <pt x="421" y="500" on="1"/>
        <pt x="578" y="500" on="1"/>
        <pt x="376" y="277" on="1"/>
        <pt x="556" y="0" on="1"/>
        <pt x="397" y="0" on="1"/>
        <pt x="285" y="177" on="1"/>
        <pt x="223" y="108" on="1"/>
        <pt x="212" y="0" on="1"/>
        <pt x="75" y="0" on="1"/>
        <pt x="126" y="500" on="1"/>
      </contour>
    </TTGlyph>
    <TTGlyph name="l" xMin="82" yMin="0" xMax="324" yMax="730">
      <contour>
        <pt x="191" y="0" on="1"/>
        <pt x="82" y="67" on="1"/>
        <pt x="151" y="730" on="1"/>
        <pt x="288" y="730" on="1"/>
        <pt x="224" y="117" on="1"/>
        <pt x="324" y="117" on="1"/>
        <pt x="312" y="0" on="1"/>
      </contour>
    </TTGlyph>
    <TTGlyph name="l.alt" xMin="75" yMin="0" xMax="288" yMax="730">
      <contour>
        <pt x="212" y="0" on="1"/>
        <pt x="75" y="0" on="1"/>
        <pt x="151" y="730" on="1"/>
        <pt x="288" y="730" on="1"/>
      </contour>
    </TTGlyph>
    <TTGlyph name="ldot" xMin="82" yMin="0" xMax="481" yMax="730">
      <contour>
        <pt x="191" y="0" on="1"/>
        <pt x="82" y="67" on="1"/>
        <pt x="151" y="730" on="1"/>
        <pt x="288" y="730" on="1"/>
        <pt x="224" y="117" on="1"/>
        <pt x="324" y="117" on="1"/>
        <pt x="312" y="0" on="1"/>
      </contour>
      <contour>
        <pt x="333" y="234" on="1"/>
        <pt x="347" y="368" on="1"/>
        <pt x="481" y="368" on="1"/>
        <pt x="467" y="234" on="1"/>
      </contour>
    </TTGlyph>
    <TTGlyph name="less" xMin="73" yMin="-1" xMax="627" yMax="501">
      <contour>
        <pt x="627" y="501" on="1"/>
        <pt x="613" y="367" on="1"/>
        <pt x="246" y="251" on="1"/>
        <pt x="246" y="249" on="1"/>
        <pt x="588" y="133" on="1"/>
        <pt x="574" y="-1" on="1"/>
        <pt x="73" y="179" on="1"/>
        <pt x="88" y="321" on="1"/>
      </contour>
    </TTGlyph>
    <TTGlyph name="lessequal" xMin="85" yMin="0" xMax="665" yMax="579">
      <contour>
        <pt x="665" y="579" on="1"/>
        <pt x="652" y="451" on="1"/>
        <pt x="286" y="371" on="1"/>
        <pt x="286" y="369" on="1"/>
        <pt x="635" y="289" on="1"/>
        <pt x="621" y="161" on="1"/>
        <pt x="115" y="291" on="1"/>
        <pt x="132" y="449" on="1"/>
      </contour>
      <contour>
        <pt x="618" y="124" on="1"/>
        <pt x="605" y="0" on="1"/>
        <pt x="85" y="0" on="1"/>
        <pt x="98" y="124" on="1"/>
      </contour>
    </TTGlyph>
    <TTGlyph name="lslash" xMin="44" yMin="0" xMax="348" yMax="730">
      <contour>
        <pt x="54" y="378" on="1"/>
        <pt x="116" y="394" on="1"/>
        <pt x="151" y="730" on="1"/>
        <pt x="288" y="730" on="1"/>
        <pt x="257" y="431" on="1"/>
        <pt x="348" y="455" on="1"/>
        <pt x="338" y="355" on="1"/>
        <pt x="246" y="331" on="1"/>
        <pt x="224" y="117" on="1"/>
        <pt x="324" y="117" on="1"/>
        <pt x="312" y="0" on="1"/>
        <pt x="191" y="0" on="1"/>
        <pt x="82" y="67" on="1"/>
        <pt x="105" y="294" on="1"/>
        <pt x="44" y="278" on="1"/>
      </contour>
    </TTGlyph>
    <TTGlyph name="m" xMin="75" yMin="0" xMax="824" yMax="505">
      <contour>
        <pt x="824" y="438" on="1"/>
        <pt x="778" y="0" on="1"/>
        <pt x="641" y="0" on="1"/>
        <pt x="681" y="388" on="1"/>
        <pt x="535" y="388" on="1"/>
        <pt x="495" y="0" on="1"/>
        <pt x="358" y="0" on="1"/>
        <pt x="398" y="388" on="1"/>
        <pt x="252" y="388" on="1"/>
        <pt x="212" y="0" on="1"/>
        <pt x="75" y="0" on="1"/>
        <pt x="128" y="505" on="1"/>
        <pt x="241" y="505" on="1"/>
        <pt x="260" y="464" on="1"/>
        <pt x="336" y="505" on="1"/>
        <pt x="432" y="505" on="1"/>
        <pt x="519" y="451" on="1"/>
        <pt x="619" y="505" on="1"/>
        <pt x="715" y="505" on="1"/>
      </contour>
    </TTGlyph>
    <TTGlyph name="macron" xMin="207" yMin="600" xMax="528" yMax="697">
      <contour>
        <pt x="207" y="600" on="1"/>
        <pt x="217" y="697" on="1"/>
        <pt x="528" y="697" on="1"/>
        <pt x="518" y="600" on="1"/>
      </contour>
    </TTGlyph>
    <TTGlyph name="madslug" xMin="80" yMin="-9" xMax="816" yMax="730">
      <contour>
        <pt x="650" y="51" on="1"/>
        <pt x="554" y="-9" on="0"/>
        <pt x="447" y="-9" on="1"/>
        <pt x="295" y="-9" on="0"/>
        <pt x="80" y="207" on="0"/>
        <pt x="80" y="361" on="1"/>
        <pt x="80" y="458" on="0"/>
        <pt x="167" y="611" on="0"/>
        <pt x="263" y="611" on="0"/>
        <pt x="263" y="560" on="1"/>
        <pt x="263" y="527" on="0"/>
        <pt x="204" y="267" on="0"/>
        <pt x="204" y="265" on="1"/>
        <pt x="204" y="254" on="0"/>
        <pt x="240" y="254" on="0"/>
        <pt x="317" y="272" on="0"/>
        <pt x="321" y="280" on="1"/>
        <pt x="321" y="282" on="0"/>
        <pt x="351" y="414" on="0"/>
        <pt x="360" y="456" on="1"/>
        <pt x="380" y="557" on="0"/>
        <pt x="380" y="628" on="0"/>
        <pt x="316" y="669" on="0"/>
        <pt x="267" y="669" on="1"/>
        <pt x="248" y="667" on="1"/>
        <pt x="246" y="670" on="1"/>
        <pt x="340" y="730" on="0"/>
        <pt x="447" y="730" on="1"/>
        <pt x="601" y="730" on="0"/>
        <pt x="816" y="514" on="0"/>
        <pt x="816" y="360" on="1"/>
        <pt x="816" y="263" on="0"/>
        <pt x="729" y="110" on="0"/>
        <pt x="633" y="110" on="0"/>
        <pt x="633" y="161" on="1"/>
        <pt x="633" y="194" on="0"/>
        <pt x="692" y="454" on="0"/>
        <pt x="692" y="455" on="1"/>
        <pt x="692" y="467" on="0"/>
        <pt x="656" y="467" on="0"/>
        <pt x="579" y="449" on="0"/>
        <pt x="575" y="441" on="1"/>
        <pt x="575" y="439" on="0"/>
        <pt x="545" y="307" on="0"/>
        <pt x="536" y="265" on="1"/>
        <pt x="516" y="164" on="0"/>
        <pt x="516" y="93" on="0"/>
        <pt x="580" y="52" on="0"/>
        <pt x="629" y="52" on="1"/>
        <pt x="648" y="53" on="1"/>
      </contour>
      <contour>
        <pt x="476" y="234" on="1"/>
        <pt x="489" y="287" on="0"/>
        <pt x="533" y="494" on="0"/>
        <pt x="533" y="511" on="0"/>
        <pt x="498" y="511" on="0"/>
        <pt x="433" y="497" on="0"/>
        <pt x="420" y="487" on="1"/>
        <pt x="407" y="434" on="0"/>
        <pt x="363" y="227" on="0"/>
        <pt x="363" y="209" on="0"/>
        <pt x="397" y="209" on="0"/>
        <pt x="463" y="224" on="0"/>
      </contour>
    </TTGlyph>
    <TTGlyph name="minus" xMin="65" yMin="193" xMax="599" yMax="327">
      <contour>
        <pt x="599" y="327" on="1"/>
        <pt x="585" y="193" on="1"/>
        <pt x="65" y="193" on="1"/>
        <pt x="79" y="327" on="1"/>
      </contour>
    </TTGlyph>
    <TTGlyph name="mu" xMin="75" yMin="-188" xMax="635" yMax="500">
      <contour>
        <pt x="212" y="-188" on="1"/>
        <pt x="75" y="-188" on="1"/>
        <pt x="147" y="500" on="1"/>
        <pt x="284" y="500" on="1"/>
        <pt x="244" y="117" on="1"/>
        <pt x="415" y="117" on="1"/>
        <pt x="455" y="500" on="1"/>
        <pt x="592" y="500" on="1"/>
        <pt x="552" y="117" on="1"/>
        <pt x="635" y="117" on="1"/>
        <pt x="622" y="0" on="1"/>
        <pt x="426" y="0" on="1"/>
        <pt x="407" y="41" on="1"/>
        <pt x="331" y="0" on="1"/>
        <pt x="231" y="0" on="1"/>
      </contour>
    </TTGlyph>
    <TTGlyph name="multiply" xMin="64" yMin="0" xMax="619" yMax="520">
      <contour>
        <pt x="204" y="520" on="1"/>
        <pt x="352" y="355" on="1"/>
        <pt x="534" y="520" on="1"/>
        <pt x="619" y="425" on="1"/>
        <pt x="437" y="260" on="1"/>
        <pt x="584" y="95" on="1"/>
        <pt x="480" y="0" on="1"/>
        <pt x="332" y="165" on="1"/>
        <pt x="150" y="0" on="1"/>
        <pt x="64" y="95" on="1"/>
        <pt x="247" y="260" on="1"/>
        <pt x="99" y="425" on="1"/>
      </contour>
    </TTGlyph>
    <TTGlyph name="n" xMin="75" yMin="0" xMax="566" yMax="505">
      <contour>
        <pt x="566" y="438" on="1"/>
        <pt x="520" y="0" on="1"/>
        <pt x="383" y="0" on="1"/>
        <pt x="423" y="388" on="1"/>
        <pt x="252" y="388" on="1"/>
        <pt x="212" y="0" on="1"/>
        <pt x="75" y="0" on="1"/>
        <pt x="128" y="505" on="1"/>
        <pt x="241" y="505" on="1"/>
        <pt x="260" y="464" on="1"/>
        <pt x="336" y="505" on="1"/>
        <pt x="457" y="505" on="1"/>
      </contour>
    </TTGlyph>
    <TTGlyph name="nacute" xMin="75" yMin="0" xMax="566" yMax="718">
      <contour>
        <pt x="566" y="438" on="1"/>
        <pt x="520" y="0" on="1"/>
        <pt x="383" y="0" on="1"/>
        <pt x="423" y="388" on="1"/>
        <pt x="252" y="388" on="1"/>
        <pt x="212" y="0" on="1"/>
        <pt x="75" y="0" on="1"/>
        <pt x="128" y="505" on="1"/>
        <pt x="241" y="505" on="1"/>
        <pt x="260" y="464" on="1"/>
        <pt x="336" y="505" on="1"/>
        <pt x="457" y="505" on="1"/>
      </contour>
      <contour>
        <pt x="239" y="590" on="1"/>
        <pt x="346" y="718" on="1"/>
        <pt x="516" y="718" on="1"/>
        <pt x="359" y="590" on="1"/>
      </contour>
    </TTGlyph>
    <TTGlyph name="nine" xMin="91" yMin="-5" xMax="627" yMax="705">
      <contour>
        <pt x="432" y="115" on="1"/>
        <pt x="453" y="316" on="1"/>
        <pt x="377" y="275" on="1"/>
        <pt x="229" y="275" on="1"/>
        <pt x="120" y="342" on="1"/>
        <pt x="152" y="638" on="1"/>
        <pt x="275" y="705" on="1"/>
        <pt x="518" y="705" on="1"/>
        <pt x="627" y="638" on="1"/>
        <pt x="566" y="62" on="1"/>
        <pt x="443" y="-5" on="1"/>
        <pt x="200" y="-5" on="1"/>
        <pt x="91" y="62" on="1"/>
        <pt x="106" y="205" on="1"/>
        <pt x="246" y="205" on="1"/>
        <pt x="237" y="115" on="1"/>
      </contour>
      <contour>
        <pt x="461" y="395" on="1"/>
        <pt x="481" y="585" on="1"/>
        <pt x="286" y="585" on="1"/>
        <pt x="266" y="395" on="1"/>
      </contour>
    </TTGlyph>
    <TTGlyph name="notequal" xMin="83" yMin="-11" xMax="658" yMax="511">
      <contour>
        <pt x="649" y="426" on="1"/>
        <pt x="636" y="302" on="1"/>
        <pt x="472" y="302" on="1"/>
        <pt x="379" y="198" on="1"/>
        <pt x="625" y="198" on="1"/>
        <pt x="612" y="74" on="1"/>
        <pt x="269" y="74" on="1"/>
        <pt x="193" y="-11" on="1"/>
        <pt x="83" y="-11" on="1"/>
        <pt x="159" y="74" on="1"/>
        <pt x="92" y="74" on="1"/>
        <pt x="105" y="198" on="1"/>
        <pt x="269" y="198" on="1"/>
        <pt x="362" y="302" on="1"/>
        <pt x="116" y="302" on="1"/>
        <pt x="129" y="426" on="1"/>
        <pt x="472" y="426" on="1"/>
        <pt x="548" y="511" on="1"/>
        <pt x="658" y="511" on="1"/>
        <pt x="582" y="426" on="1"/>
      </contour>
    </TTGlyph>
    <TTGlyph name="ntilde" xMin="75" yMin="0" xMax="566" yMax="764">
      <component glyphName="n" x="0" y="0" flags="0x1004"/>
      <component glyphName="tilde" x="50" y="0" flags="0x1004"/>
    </TTGlyph>
    <TTGlyph name="numbersign" xMin="72" yMin="-19" xMax="766" yMax="719">
      <contour>
        <pt x="562" y="165" on="1"/>
        <pt x="553" y="105" on="0"/>
        <pt x="527" y="-19" on="1"/>
        <pt x="403" y="-19" on="1"/>
        <pt x="439" y="165" on="1"/>
        <pt x="314" y="165" on="1"/>
        <pt x="279" y="-19" on="1"/>
        <pt x="155" y="-19" on="1"/>
        <pt x="190" y="165" on="1"/>
        <pt x="72" y="165" on="1"/>
        <pt x="83" y="267" on="1"/>
        <pt x="210" y="267" on="1"/>
        <pt x="230" y="369" on="0"/>
        <pt x="244" y="441" on="1"/>
        <pt x="101" y="441" on="1"/>
        <pt x="112" y="543" on="1"/>
        <pt x="264" y="543" on="1"/>
        <pt x="298" y="719" on="1"/>
        <pt x="422" y="719" on="1"/>
        <pt x="388" y="543" on="1"/>
        <pt x="512" y="543" on="1"/>
        <pt x="547" y="719" on="1"/>
        <pt x="670" y="719" on="1"/>
        <pt x="636" y="543" on="1"/>
        <pt x="766" y="543" on="1"/>
        <pt x="755" y="441" on="1"/>
        <pt x="616" y="441" on="1"/>
        <pt x="596" y="339" on="0"/>
        <pt x="582" y="267" on="1"/>
        <pt x="737" y="267" on="1"/>
        <pt x="726" y="165" on="1"/>
      </contour>
      <contour>
        <pt x="368" y="441" on="1"/>
        <pt x="334" y="267" on="1"/>
        <pt x="458" y="267" on="1"/>
        <pt x="481" y="382" on="0"/>
        <pt x="493" y="441" on="1"/>
      </contour>
    </TTGlyph>
    <TTGlyph name="o" xMin="81" yMin="-5" xMax="566" yMax="505">
      <contour>
        <pt x="526" y="62" on="1"/>
        <pt x="403" y="-5" on="1"/>
        <pt x="190" y="-5" on="1"/>
        <pt x="81" y="62" on="1"/>
        <pt x="121" y="438" on="1"/>
        <pt x="244" y="505" on="1"/>
        <pt x="457" y="505" on="1"/>
        <pt x="566" y="438" on="1"/>
      </contour>
      <contour>
        <pt x="252" y="388" on="1"/>
        <pt x="223" y="112" on="1"/>
        <pt x="394" y="112" on="1"/>
        <pt x="423" y="388" on="1"/>
      </contour>
    </TTGlyph>
    <TTGlyph name="oacute" xMin="81" yMin="-5" xMax="566" yMax="718">
      <contour>
        <pt x="526" y="62" on="1"/>
        <pt x="403" y="-5" on="1"/>
        <pt x="190" y="-5" on="1"/>
        <pt x="81" y="62" on="1"/>
        <pt x="121" y="438" on="1"/>
        <pt x="244" y="505" on="1"/>
        <pt x="457" y="505" on="1"/>
        <pt x="566" y="438" on="1"/>
      </contour>
      <contour>
        <pt x="252" y="388" on="1"/>
        <pt x="223" y="112" on="1"/>
        <pt x="394" y="112" on="1"/>
        <pt x="423" y="388" on="1"/>
      </contour>
      <contour>
        <pt x="257" y="590" on="1"/>
        <pt x="364" y="718" on="1"/>
        <pt x="534" y="718" on="1"/>
        <pt x="377" y="590" on="1"/>
      </contour>
    </TTGlyph>
    <TTGlyph name="ocircumflex" xMin="81" yMin="-5" xMax="566" yMax="738">
      <component glyphName="o" x="0" y="0" flags="0x1004"/>
      <component glyphName="circumflex" x="38" y="0" flags="0x1004"/>
    </TTGlyph>
    <TTGlyph name="odieresis" xMin="81" yMin="-5" xMax="566" yMax="730">
      <component glyphName="o" x="0" y="0" flags="0x1004"/>
      <component glyphName="dieresis" x="35" y="0" flags="0x1004"/>
    </TTGlyph>
    <TTGlyph name="oe" xMin="81" yMin="-5" xMax="844" yMax="505">
      <contour>
        <pt x="810" y="117" on="1"/>
        <pt x="798" y="0" on="1"/>
        <pt x="519" y="0" on="1"/>
        <pt x="459" y="36" on="1"/>
        <pt x="383" y="-5" on="1"/>
        <pt x="190" y="-5" on="1"/>
        <pt x="81" y="62" on="1"/>
        <pt x="121" y="438" on="1"/>
        <pt x="244" y="505" on="1"/>
        <pt x="437" y="505" on="1"/>
        <pt x="499" y="466" on="1"/>
        <pt x="572" y="505" on="1"/>
        <pt x="735" y="505" on="1"/>
        <pt x="844" y="438" on="1"/>
        <pt x="818" y="199" on="1"/>
        <pt x="540" y="199" on="1"/>
        <pt x="532" y="117" on="1"/>
      </contour>
      <contour>
        <pt x="252" y="388" on="1"/>
        <pt x="223" y="112" on="1"/>
        <pt x="394" y="112" on="1"/>
        <pt x="423" y="388" on="1"/>
      </contour>
      <contour>
        <pt x="560" y="388" on="1"/>
        <pt x="551" y="302" on="1"/>
        <pt x="692" y="302" on="1"/>
        <pt x="701" y="388" on="1"/>
      </contour>
    </TTGlyph>
    <TTGlyph name="ogonek" xMin="144" yMin="-213" xMax="347" yMax="0">
      <contour>
        <pt x="267" y="0" on="1"/>
        <pt x="254" y="-116" on="1"/>
        <pt x="347" y="-116" on="1"/>
        <pt x="337" y="-213" on="1"/>
        <pt x="253" y="-213" on="1"/>
        <pt x="144" y="-146" on="1"/>
        <pt x="160" y="0" on="1"/>
      </contour>
    </TTGlyph>
    <TTGlyph name="ograve" xMin="81" yMin="-5" xMax="566" yMax="718">
      <component glyphName="o" x="0" y="0" flags="0x1004"/>
      <component glyphName="grave" x="-20" y="0" flags="0x1004"/>
    </TTGlyph>
    <TTGlyph name="one" xMin="85" yMin="0" xMax="557" yMax="700">
      <contour>
        <pt x="133" y="466" on="1"/>
        <pt x="147" y="597" on="1"/>
        <pt x="338" y="700" on="1"/>
        <pt x="458" y="700" on="1"/>
        <pt x="397" y="120" on="1"/>
        <pt x="557" y="120" on="1"/>
        <pt x="545" y="0" on="1"/>
        <pt x="85" y="0" on="1"/>
        <pt x="97" y="120" on="1"/>
        <pt x="257" y="120" on="1"/>
        <pt x="303" y="558" on="1"/>
      </contour>
    </TTGlyph>
    <TTGlyph name="ordfeminine" xMin="75" yMin="0" xMax="594" yMax="705">
      <contour>
        <pt x="75" y="0" on="1"/>
        <pt x="87" y="117" on="1"/>
        <pt x="532" y="117" on="1"/>
        <pt x="520" y="0" on="1"/>
      </contour>
      <contour>
        <pt x="415" y="312" on="1"/>
        <pt x="444" y="588" on="1"/>
        <pt x="273" y="588" on="1"/>
        <pt x="244" y="312" on="1"/>
      </contour>
      <contour>
        <pt x="594" y="705" on="1"/>
        <pt x="540" y="195" on="1"/>
        <pt x="474" y="195" on="1"/>
        <pt x="407" y="236" on="1"/>
        <pt x="332" y="195" on="1"/>
        <pt x="211" y="195" on="1"/>
        <pt x="102" y="262" on="1"/>
        <pt x="142" y="638" on="1"/>
        <pt x="265" y="705" on="1"/>
        <pt x="386" y="705" on="1"/>
        <pt x="452" y="664" on="1"/>
        <pt x="528" y="705" on="1"/>
      </contour>
    </TTGlyph>
    <TTGlyph name="ordmasculine" xMin="75" yMin="0" xMax="587" yMax="705">
      <contour>
        <pt x="547" y="262" on="1"/>
        <pt x="424" y="195" on="1"/>
        <pt x="211" y="195" on="1"/>
        <pt x="102" y="262" on="1"/>
        <pt x="142" y="638" on="1"/>
        <pt x="265" y="705" on="1"/>
        <pt x="478" y="705" on="1"/>
        <pt x="587" y="638" on="1"/>
      </contour>
      <contour>
        <pt x="273" y="588" on="1"/>
        <pt x="244" y="312" on="1"/>
        <pt x="415" y="312" on="1"/>
        <pt x="444" y="588" on="1"/>
      </contour>
      <contour>
        <pt x="75" y="0" on="1"/>
        <pt x="87" y="117" on="1"/>
        <pt x="532" y="117" on="1"/>
        <pt x="520" y="0" on="1"/>
      </contour>
    </TTGlyph>
    <TTGlyph name="oslash" xMin="81" yMin="-5" xMax="566" yMax="505">
      <contour>
        <pt x="526" y="62" on="1"/>
        <pt x="403" y="-5" on="1"/>
        <pt x="190" y="-5" on="1"/>
        <pt x="81" y="62" on="1"/>
        <pt x="121" y="438" on="1"/>
        <pt x="244" y="505" on="1"/>
        <pt x="457" y="505" on="1"/>
        <pt x="566" y="438" on="1"/>
      </contour>
      <contour>
        <pt x="264" y="112" on="1"/>
        <pt x="394" y="112" on="1"/>
        <pt x="414" y="301" on="1"/>
      </contour>
      <contour>
        <pt x="252" y="388" on="1"/>
        <pt x="232" y="198" on="1"/>
        <pt x="382" y="388" on="1"/>
      </contour>
    </TTGlyph>
    <TTGlyph name="otilde" xMin="81" yMin="-5" xMax="566" yMax="764">
      <contour>
        <pt x="526" y="62" on="1"/>
        <pt x="403" y="-5" on="1"/>
        <pt x="190" y="-5" on="1"/>
        <pt x="81" y="62" on="1"/>
        <pt x="121" y="438" on="1"/>
        <pt x="244" y="505" on="1"/>
        <pt x="457" y="505" on="1"/>
        <pt x="566" y="438" on="1"/>
      </contour>
      <contour>
        <pt x="252" y="388" on="1"/>
        <pt x="223" y="112" on="1"/>
        <pt x="394" y="112" on="1"/>
        <pt x="423" y="388" on="1"/>
      </contour>
      <contour>
        <pt x="292" y="667" on="1"/>
        <pt x="288" y="667" on="1"/>
        <pt x="279" y="585" on="1"/>
        <pt x="181" y="585" on="1"/>
        <pt x="194" y="709" on="1"/>
        <pt x="294" y="764" on="1"/>
        <pt x="322" y="764" on="1"/>
        <pt x="455" y="682" on="1"/>
        <pt x="459" y="682" on="1"/>
        <pt x="468" y="764" on="1"/>
        <pt x="566" y="764" on="1"/>
        <pt x="553" y="640" on="1"/>
        <pt x="453" y="585" on="1"/>
        <pt x="425" y="585" on="1"/>
      </contour>
    </TTGlyph>
    <TTGlyph name="p" xMin="53" yMin="-200" xMax="576" yMax="505">
      <contour>
        <pt x="413" y="-5" on="1"/>
        <pt x="282" y="-5" on="1"/>
        <pt x="215" y="36" on="1"/>
        <pt x="190" y="-200" on="1"/>
        <pt x="53" y="-200" on="1"/>
        <pt x="128" y="505" on="1"/>
        <pt x="241" y="505" on="1"/>
        <pt x="260" y="464" on="1"/>
        <pt x="336" y="505" on="1"/>
        <pt x="467" y="505" on="1"/>
        <pt x="576" y="438" on="1"/>
        <pt x="536" y="62" on="1"/>
      </contour>
      <contour>
        <pt x="252" y="388" on="1"/>
        <pt x="223" y="112" on="1"/>
        <pt x="404" y="112" on="1"/>
        <pt x="433" y="388" on="1"/>
      </contour>
    </TTGlyph>
    <TTGlyph name="paragraph" xMin="85" yMin="-200" xMax="723" yMax="700">
      <contour>
        <pt x="491" y="-200" on="1"/>
        <pt x="574" y="583" on="1"/>
        <pt x="487" y="583" on="1"/>
        <pt x="404" y="-200" on="1"/>
        <pt x="267" y="-200" on="1"/>
        <pt x="312" y="219" on="1"/>
        <pt x="194" y="219" on="1"/>
        <pt x="85" y="286" on="1"/>
        <pt x="121" y="633" on="1"/>
        <pt x="244" y="700" on="1"/>
        <pt x="723" y="700" on="1"/>
        <pt x="628" y="-200" on="1"/>
      </contour>
    </TTGlyph>
    <TTGlyph name="parenleft" xMin="71" yMin="-200" xMax="404" yMax="730">
      <contour>
        <pt x="281" y="630" on="1"/>
        <pt x="204" y="-100" on="1"/>
        <pt x="317" y="-100" on="1"/>
        <pt x="306" y="-200" on="1"/>
        <pt x="179" y="-200" on="1"/>
        <pt x="71" y="-133" on="1"/>
        <pt x="154" y="663" on="1"/>
        <pt x="277" y="730" on="1"/>
        <pt x="404" y="730" on="1"/>
        <pt x="394" y="630" on="1"/>
      </contour>
    </TTGlyph>
    <TTGlyph name="parenright" xMin="33" yMin="-200" xMax="367" yMax="730">
      <contour>
        <pt x="157" y="-100" on="1"/>
        <pt x="234" y="630" on="1"/>
        <pt x="121" y="630" on="1"/>
        <pt x="131" y="730" on="1"/>
        <pt x="258" y="730" on="1"/>
        <pt x="367" y="663" on="1"/>
        <pt x="284" y="-133" on="1"/>
        <pt x="160" y="-200" on="1"/>
        <pt x="33" y="-200" on="1"/>
        <pt x="44" y="-100" on="1"/>
      </contour>
    </TTGlyph>
    <TTGlyph name="partialdiff" xMin="91" yMin="-5" xMax="627" yMax="705">
      <contour>
        <pt x="481" y="585" on="1"/>
        <pt x="262" y="585" on="1"/>
        <pt x="275" y="705" on="1"/>
        <pt x="518" y="705" on="1"/>
        <pt x="627" y="638" on="1"/>
        <pt x="566" y="62" on="1"/>
        <pt x="443" y="-5" on="1"/>
        <pt x="200" y="-5" on="1"/>
        <pt x="91" y="62" on="1"/>
        <pt x="121" y="348" on="1"/>
        <pt x="244" y="415" on="1"/>
        <pt x="392" y="415" on="1"/>
        <pt x="459" y="374" on="1"/>
      </contour>
      <contour>
        <pt x="432" y="115" on="1"/>
        <pt x="451" y="295" on="1"/>
        <pt x="256" y="295" on="1"/>
        <pt x="237" y="115" on="1"/>
      </contour>
    </TTGlyph>
    <TTGlyph name="percent" xMin="119" yMin="-10" xMax="955" yMax="710">
      <contour>
        <pt x="484" y="424" on="1"/>
        <pt x="361" y="357" on="1"/>
        <pt x="228" y="357" on="1"/>
        <pt x="119" y="424" on="1"/>
        <pt x="142" y="643" on="1"/>
        <pt x="265" y="710" on="1"/>
        <pt x="398" y="710" on="1"/>
        <pt x="507" y="643" on="1"/>
      </contour>
      <contour>
        <pt x="258" y="599" on="1"/>
        <pt x="245" y="468" on="1"/>
        <pt x="368" y="468" on="1"/>
        <pt x="381" y="599" on="1"/>
      </contour>
      <contour>
        <pt x="766" y="710" on="1"/>
        <pt x="896" y="710" on="1"/>
        <pt x="307" y="-10" on="1"/>
        <pt x="177" y="-10" on="1"/>
      </contour>
      <contour>
        <pt x="590" y="276" on="1"/>
        <pt x="713" y="343" on="1"/>
        <pt x="846" y="343" on="1"/>
        <pt x="955" y="276" on="1"/>
        <pt x="931" y="57" on="1"/>
        <pt x="808" y="-10" on="1"/>
        <pt x="675" y="-10" on="1"/>
        <pt x="566" y="57" on="1"/>
      </contour>
      <contour>
        <pt x="815" y="101" on="1"/>
        <pt x="829" y="232" on="1"/>
        <pt x="706" y="232" on="1"/>
        <pt x="692" y="101" on="1"/>
      </contour>
    </TTGlyph>
    <TTGlyph name="period" xMin="95" yMin="0" xMax="304" yMax="190">
      <contour>
        <pt x="95" y="0" on="1"/>
        <pt x="114" y="190" on="1"/>
        <pt x="304" y="190" on="1"/>
        <pt x="285" y="0" on="1"/>
      </contour>
    </TTGlyph>
    <TTGlyph name="periodcentered" xMin="122" yMin="264" xMax="332" yMax="454">
      <contour>
        <pt x="122" y="264" on="1"/>
        <pt x="142" y="454" on="1"/>
        <pt x="332" y="454" on="1"/>
        <pt x="312" y="264" on="1"/>
      </contour>
    </TTGlyph>
    <TTGlyph name="perthousand" xMin="119" yMin="-10" xMax="1390" yMax="710">
      <contour>
        <pt x="484" y="424" on="1"/>
        <pt x="361" y="357" on="1"/>
        <pt x="228" y="357" on="1"/>
        <pt x="119" y="424" on="1"/>
        <pt x="142" y="643" on="1"/>
        <pt x="265" y="710" on="1"/>
        <pt x="398" y="710" on="1"/>
        <pt x="507" y="643" on="1"/>
      </contour>
      <contour>
        <pt x="258" y="599" on="1"/>
        <pt x="245" y="468" on="1"/>
        <pt x="368" y="468" on="1"/>
        <pt x="381" y="599" on="1"/>
      </contour>
      <contour>
        <pt x="766" y="710" on="1"/>
        <pt x="896" y="710" on="1"/>
        <pt x="307" y="-10" on="1"/>
        <pt x="177" y="-10" on="1"/>
      </contour>
      <contour>
        <pt x="590" y="276" on="1"/>
        <pt x="713" y="343" on="1"/>
        <pt x="846" y="343" on="1"/>
        <pt x="955" y="276" on="1"/>
        <pt x="931" y="57" on="1"/>
        <pt x="808" y="-10" on="1"/>
        <pt x="675" y="-10" on="1"/>
        <pt x="566" y="57" on="1"/>
      </contour>
      <contour>
        <pt x="815" y="101" on="1"/>
        <pt x="829" y="232" on="1"/>
        <pt x="706" y="232" on="1"/>
        <pt x="692" y="101" on="1"/>
      </contour>
      <contour>
        <pt x="1025" y="276" on="1"/>
        <pt x="1148" y="343" on="1"/>
        <pt x="1281" y="343" on="1"/>
        <pt x="1390" y="276" on="1"/>
        <pt x="1366" y="57" on="1"/>
        <pt x="1243" y="-10" on="1"/>
        <pt x="1110" y="-10" on="1"/>
        <pt x="1001" y="57" on="1"/>
      </contour>
      <contour>
        <pt x="1250" y="101" on="1"/>
        <pt x="1264" y="232" on="1"/>
        <pt x="1141" y="232" on="1"/>
        <pt x="1127" y="101" on="1"/>
      </contour>
    </TTGlyph>
    <TTGlyph name="plus" xMin="65" yMin="0" xMax="599" yMax="520">
      <contour>
        <pt x="79" y="327" on="1"/>
        <pt x="272" y="327" on="1"/>
        <pt x="292" y="520" on="1"/>
        <pt x="426" y="520" on="1"/>
        <pt x="406" y="327" on="1"/>
        <pt x="599" y="327" on="1"/>
        <pt x="585" y="193" on="1"/>
        <pt x="392" y="193" on="1"/>
        <pt x="372" y="0" on="1"/>
        <pt x="238" y="0" on="1"/>
        <pt x="258" y="193" on="1"/>
        <pt x="65" y="193" on="1"/>
      </contour>
    </TTGlyph>
    <TTGlyph name="plusminus" xMin="85" yMin="0" xMax="651" yMax="580">
      <contour>
        <pt x="131" y="447" on="1"/>
        <pt x="324" y="447" on="1"/>
        <pt x="338" y="580" on="1"/>
        <pt x="472" y="580" on="1"/>
        <pt x="458" y="447" on="1"/>
        <pt x="651" y="447" on="1"/>
        <pt x="637" y="313" on="1"/>
        <pt x="444" y="313" on="1"/>
        <pt x="430" y="180" on="1"/>
        <pt x="296" y="180" on="1"/>
        <pt x="310" y="313" on="1"/>
        <pt x="117" y="313" on="1"/>
      </contour>
      <contour>
        <pt x="619" y="134" on="1"/>
        <pt x="605" y="0" on="1"/>
        <pt x="85" y="0" on="1"/>
        <pt x="99" y="134" on="1"/>
      </contour>
    </TTGlyph>
    <TTGlyph name="q" xMin="81" yMin="-200" xMax="583" yMax="505">
      <contour>
        <pt x="321" y="-5" on="1"/>
        <pt x="190" y="-5" on="1"/>
        <pt x="81" y="62" on="1"/>
        <pt x="121" y="438" on="1"/>
        <pt x="244" y="505" on="1"/>
        <pt x="375" y="505" on="1"/>
        <pt x="441" y="464" on="1"/>
        <pt x="517" y="505" on="1"/>
        <pt x="583" y="505" on="1"/>
        <pt x="508" y="-200" on="1"/>
        <pt x="371" y="-200" on="1"/>
        <pt x="396" y="36" on="1"/>
      </contour>
      <contour>
        <pt x="404" y="112" on="1"/>
        <pt x="433" y="388" on="1"/>
        <pt x="252" y="388" on="1"/>
        <pt x="223" y="112" on="1"/>
      </contour>
    </TTGlyph>
    <TTGlyph name="question" xMin="139" yMin="0" xMax="574" yMax="730">
      <contour>
        <pt x="356" y="376" on="1"/>
        <pt x="338" y="288" on="1"/>
        <pt x="228" y="288" on="1"/>
        <pt x="233" y="429" on="1"/>
        <pt x="356" y="496" on="1"/>
        <pt x="417" y="496" on="1"/>
        <pt x="429" y="610" on="1"/>
        <pt x="289" y="610" on="1"/>
        <pt x="279" y="520" on="1"/>
        <pt x="139" y="520" on="1"/>
        <pt x="154" y="663" on="1"/>
        <pt x="277" y="730" on="1"/>
        <pt x="465" y="730" on="1"/>
        <pt x="574" y="663" on="1"/>
        <pt x="551" y="443" on="1"/>
        <pt x="428" y="376" on="1"/>
      </contour>
      <contour>
        <pt x="158" y="0" on="1"/>
        <pt x="177" y="190" on="1"/>
        <pt x="367" y="190" on="1"/>
        <pt x="348" y="0" on="1"/>
      </contour>
    </TTGlyph>
    <TTGlyph name="questiondown" xMin="67" yMin="-230" xMax="502" yMax="500">
      <contour>
        <pt x="286" y="124" on="1"/>
        <pt x="304" y="212" on="1"/>
        <pt x="414" y="212" on="1"/>
        <pt x="409" y="71" on="1"/>
        <pt x="286" y="4" on="1"/>
        <pt x="225" y="4" on="1"/>
        <pt x="213" y="-110" on="1"/>
        <pt x="353" y="-110" on="1"/>
        <pt x="362" y="-20" on="1"/>
        <pt x="502" y="-20" on="1"/>
        <pt x="487" y="-163" on="1"/>
        <pt x="364" y="-230" on="1"/>
        <pt x="176" y="-230" on="1"/>
        <pt x="67" y="-163" on="1"/>
        <pt x="90" y="57" on="1"/>
        <pt x="214" y="124" on="1"/>
      </contour>
      <contour>
        <pt x="484" y="500" on="1"/>
        <pt x="464" y="310" on="1"/>
        <pt x="274" y="310" on="1"/>
        <pt x="294" y="500" on="1"/>
      </contour>
    </TTGlyph>
    <TTGlyph name="quotedbl" xMin="128" yMin="418" xMax="511" yMax="730">
      <contour>
        <pt x="128" y="418" on="1"/>
        <pt x="141" y="730" on="1"/>
        <pt x="291" y="730" on="1"/>
        <pt x="238" y="418" on="1"/>
      </contour>
      <contour>
        <pt x="348" y="418" on="1"/>
        <pt x="361" y="730" on="1"/>
        <pt x="511" y="730" on="1"/>
        <pt x="458" y="418" on="1"/>
      </contour>
    </TTGlyph>
    <TTGlyph name="quotedblbase" xMin="73" yMin="-200" xMax="584" yMax="190">
      <contour>
        <pt x="73" y="-200" on="1"/>
        <pt x="114" y="190" on="1"/>
        <pt x="304" y="190" on="1"/>
        <pt x="296" y="108" on="1"/>
        <pt x="155" y="-200" on="1"/>
      </contour>
      <contour>
        <pt x="353" y="-200" on="1"/>
        <pt x="394" y="190" on="1"/>
        <pt x="584" y="190" on="1"/>
        <pt x="576" y="108" on="1"/>
        <pt x="435" y="-200" on="1"/>
      </contour>
    </TTGlyph>
    <TTGlyph name="quotedblleft" xMin="120" yMin="340" xMax="631" yMax="730">
      <contour>
        <pt x="631" y="730" on="1"/>
        <pt x="590" y="340" on="1"/>
        <pt x="400" y="340" on="1"/>
        <pt x="409" y="422" on="1"/>
        <pt x="549" y="730" on="1"/>
      </contour>
      <contour>
        <pt x="351" y="730" on="1"/>
        <pt x="310" y="340" on="1"/>
        <pt x="120" y="340" on="1"/>
        <pt x="129" y="422" on="1"/>
        <pt x="269" y="730" on="1"/>
      </contour>
    </TTGlyph>
    <TTGlyph name="quotedblright" xMin="120" yMin="340" xMax="631" yMax="730">
      <contour>
        <pt x="120" y="340" on="1"/>
        <pt x="161" y="730" on="1"/>
        <pt x="351" y="730" on="1"/>
        <pt x="343" y="648" on="1"/>
        <pt x="202" y="340" on="1"/>
      </contour>
      <contour>
        <pt x="400" y="340" on="1"/>
        <pt x="441" y="730" on="1"/>
        <pt x="631" y="730" on="1"/>
        <pt x="623" y="648" on="1"/>
        <pt x="482" y="340" on="1"/>
      </contour>
    </TTGlyph>
    <TTGlyph name="quoteleft" xMin="120" yMin="340" xMax="351" yMax="730">
      <contour>
        <pt x="351" y="730" on="1"/>
        <pt x="310" y="340" on="1"/>
        <pt x="120" y="340" on="1"/>
        <pt x="129" y="422" on="1"/>
        <pt x="269" y="730" on="1"/>
      </contour>
    </TTGlyph>
    <TTGlyph name="quoteright" xMin="120" yMin="340" xMax="351" yMax="730">
      <contour>
        <pt x="120" y="340" on="1"/>
        <pt x="161" y="730" on="1"/>
        <pt x="351" y="730" on="1"/>
        <pt x="343" y="648" on="1"/>
        <pt x="202" y="340" on="1"/>
      </contour>
    </TTGlyph>
    <TTGlyph name="quotesinglbase" xMin="73" yMin="-200" xMax="304" yMax="190">
      <contour>
        <pt x="73" y="-200" on="1"/>
        <pt x="114" y="190" on="1"/>
        <pt x="304" y="190" on="1"/>
        <pt x="296" y="108" on="1"/>
        <pt x="155" y="-200" on="1"/>
      </contour>
    </TTGlyph>
    <TTGlyph name="quotesingle" xMin="128" yMin="418" xMax="291" yMax="730">
      <contour>
        <pt x="128" y="418" on="1"/>
        <pt x="141" y="730" on="1"/>
        <pt x="291" y="730" on="1"/>
        <pt x="238" y="418" on="1"/>
      </contour>
    </TTGlyph>
    <TTGlyph name="r" xMin="75" yMin="0" xMax="436" yMax="500">
      <contour>
        <pt x="424" y="383" on="1"/>
        <pt x="252" y="383" on="1"/>
        <pt x="212" y="0" on="1"/>
        <pt x="75" y="0" on="1"/>
        <pt x="127" y="500" on="1"/>
        <pt x="240" y="500" on="1"/>
        <pt x="260" y="459" on="1"/>
        <pt x="335" y="500" on="1"/>
        <pt x="436" y="500" on="1"/>
      </contour>
    </TTGlyph>
    <TTGlyph name="rcaron" xMin="75" yMin="0" xMax="490" yMax="738">
      <contour>
        <pt x="424" y="383" on="1"/>
        <pt x="252" y="383" on="1"/>
        <pt x="212" y="0" on="1"/>
        <pt x="75" y="0" on="1"/>
        <pt x="127" y="500" on="1"/>
        <pt x="240" y="500" on="1"/>
        <pt x="260" y="459" on="1"/>
        <pt x="335" y="500" on="1"/>
        <pt x="436" y="500" on="1"/>
      </contour>
      <contour>
        <pt x="375" y="590" on="1"/>
        <pt x="185" y="590" on="1"/>
        <pt x="99" y="738" on="1"/>
        <pt x="214" y="738" on="1"/>
        <pt x="287" y="658" on="1"/>
        <pt x="375" y="738" on="1"/>
        <pt x="490" y="738" on="1"/>
      </contour>
    </TTGlyph>
    <TTGlyph name="rcommaaccent" xMin="75" yMin="-367" xMax="436" yMax="500">
      <contour>
        <pt x="424" y="383" on="1"/>
        <pt x="252" y="383" on="1"/>
        <pt x="212" y="0" on="1"/>
        <pt x="75" y="0" on="1"/>
        <pt x="127" y="500" on="1"/>
        <pt x="240" y="500" on="1"/>
        <pt x="260" y="459" on="1"/>
        <pt x="335" y="500" on="1"/>
        <pt x="436" y="500" on="1"/>
      </contour>
      <contour>
        <pt x="112" y="-367" on="1"/>
        <pt x="144" y="-55" on="1"/>
        <pt x="296" y="-55" on="1"/>
        <pt x="289" y="-121" on="1"/>
        <pt x="178" y="-367" on="1"/>
      </contour>
    </TTGlyph>
    <TTGlyph name="registered" xMin="91" yMin="-5" xMax="832" yMax="705">
      <contour>
        <pt x="615" y="138" on="1"/>
        <pt x="496" y="138" on="1"/>
        <pt x="428" y="283" on="1"/>
        <pt x="405" y="283" on="1"/>
        <pt x="390" y="138" on="1"/>
        <pt x="281" y="138" on="1"/>
        <pt x="326" y="562" on="1"/>
        <pt x="567" y="562" on="1"/>
        <pt x="636" y="520" on="1"/>
        <pt x="616" y="326" on="1"/>
        <pt x="544" y="286" on="1"/>
      </contour>
      <contour>
        <pt x="425" y="469" on="1"/>
        <pt x="415" y="376" on="1"/>
        <pt x="512" y="376" on="1"/>
        <pt x="522" y="469" on="1"/>
      </contour>
      <contour>
        <pt x="771" y="62" on="1"/>
        <pt x="648" y="-5" on="1"/>
        <pt x="200" y="-5" on="1"/>
        <pt x="91" y="62" on="1"/>
        <pt x="152" y="638" on="1"/>
        <pt x="275" y="705" on="1"/>
        <pt x="723" y="705" on="1"/>
        <pt x="832" y="638" on="1"/>
      </contour>
      <contour>
        <pt x="268" y="605" on="1"/>
        <pt x="214" y="95" on="1"/>
        <pt x="654" y="95" on="1"/>
        <pt x="708" y="605" on="1"/>
      </contour>
    </TTGlyph>
    <TTGlyph name="ring" xMin="166" yMin="570" xMax="513" yMax="873">
      <contour>
        <pt x="491" y="617" on="1"/>
        <pt x="404" y="570" on="1"/>
        <pt x="243" y="570" on="1"/>
        <pt x="166" y="617" on="1"/>
        <pt x="188" y="826" on="1"/>
        <pt x="275" y="873" on="1"/>
        <pt x="436" y="873" on="1"/>
        <pt x="513" y="826" on="1"/>
      </contour>
      <contour>
        <pt x="288" y="778" on="1"/>
        <pt x="276" y="665" on="1"/>
        <pt x="391" y="665" on="1"/>
        <pt x="403" y="778" on="1"/>
      </contour>
    </TTGlyph>
    <TTGlyph name="ring.cap" xMin="166" yMin="760" xMax="513" yMax="1063">
      <contour>
        <pt x="491" y="807" on="1"/>
        <pt x="404" y="760" on="1"/>
        <pt x="243" y="760" on="1"/>
        <pt x="166" y="807" on="1"/>
        <pt x="188" y="1016" on="1"/>
        <pt x="275" y="1063" on="1"/>
        <pt x="436" y="1063" on="1"/>
        <pt x="513" y="1016" on="1"/>
      </contour>
      <contour>
        <pt x="288" y="968" on="1"/>
        <pt x="276" y="855" on="1"/>
        <pt x="391" y="855" on="1"/>
        <pt x="403" y="968" on="1"/>
      </contour>
    </TTGlyph>
    <TTGlyph name="s" xMin="75" yMin="0" xMax="513" yMax="500">
      <contour>
        <pt x="496" y="246" on="1"/>
        <pt x="478" y="67" on="1"/>
        <pt x="355" y="0" on="1"/>
        <pt x="75" y="0" on="1"/>
        <pt x="87" y="117" on="1"/>
        <pt x="346" y="117" on="1"/>
        <pt x="354" y="194" on="1"/>
        <pt x="211" y="194" on="1"/>
        <pt x="102" y="261" on="1"/>
        <pt x="120" y="433" on="1"/>
        <pt x="243" y="500" on="1"/>
        <pt x="513" y="500" on="1"/>
        <pt x="501" y="383" on="1"/>
        <pt x="252" y="383" on="1"/>
        <pt x="244" y="313" on="1"/>
        <pt x="387" y="313" on="1"/>
      </contour>
    </TTGlyph>
    <TTGlyph name="scaron" xMin="75" yMin="0" xMax="554" yMax="738">
      <contour>
        <pt x="496" y="246" on="1"/>
        <pt x="478" y="67" on="1"/>
        <pt x="355" y="0" on="1"/>
        <pt x="75" y="0" on="1"/>
        <pt x="87" y="117" on="1"/>
        <pt x="346" y="117" on="1"/>
        <pt x="354" y="194" on="1"/>
        <pt x="211" y="194" on="1"/>
        <pt x="102" y="261" on="1"/>
        <pt x="120" y="433" on="1"/>
        <pt x="243" y="500" on="1"/>
        <pt x="513" y="500" on="1"/>
        <pt x="501" y="383" on="1"/>
        <pt x="252" y="383" on="1"/>
        <pt x="244" y="313" on="1"/>
        <pt x="387" y="313" on="1"/>
      </contour>
      <contour>
        <pt x="439" y="590" on="1"/>
        <pt x="249" y="590" on="1"/>
        <pt x="163" y="738" on="1"/>
        <pt x="278" y="738" on="1"/>
        <pt x="351" y="658" on="1"/>
        <pt x="439" y="738" on="1"/>
        <pt x="554" y="738" on="1"/>
      </contour>
    </TTGlyph>
    <TTGlyph name="section" xMin="71" yMin="-200" xMax="645" yMax="705">
      <contour>
        <pt x="438" y="178" on="1"/>
        <pt x="454" y="327" on="1"/>
        <pt x="287" y="327" on="1"/>
        <pt x="271" y="178" on="1"/>
      </contour>
      <contour>
        <pt x="148" y="336" on="1"/>
        <pt x="240" y="386" on="1"/>
        <pt x="240" y="388" on="1"/>
        <pt x="159" y="438" on="1"/>
        <pt x="180" y="638" on="1"/>
        <pt x="303" y="705" on="1"/>
        <pt x="536" y="705" on="1"/>
        <pt x="645" y="638" on="1"/>
        <pt x="631" y="505" on="1"/>
        <pt x="491" y="505" on="1"/>
        <pt x="499" y="585" on="1"/>
        <pt x="314" y="585" on="1"/>
        <pt x="299" y="447" on="1"/>
        <pt x="490" y="447" on="1"/>
        <pt x="599" y="380" on="1"/>
        <pt x="577" y="169" on="1"/>
        <pt x="485" y="119" on="1"/>
        <pt x="485" y="117" on="1"/>
        <pt x="567" y="67" on="1"/>
        <pt x="546" y="-133" on="1"/>
        <pt x="422" y="-200" on="1"/>
        <pt x="179" y="-200" on="1"/>
        <pt x="71" y="-133" on="1"/>
        <pt x="85" y="0" on="1"/>
        <pt x="225" y="0" on="1"/>
        <pt x="216" y="-80" on="1"/>
        <pt x="411" y="-80" on="1"/>
        <pt x="426" y="58" on="1"/>
        <pt x="235" y="58" on="1"/>
        <pt x="126" y="125" on="1"/>
      </contour>
    </TTGlyph>
    <TTGlyph name="semicolon" xMin="73" yMin="-200" xMax="339" yMax="520">
      <contour>
        <pt x="73" y="-200" on="1"/>
        <pt x="114" y="190" on="1"/>
        <pt x="304" y="190" on="1"/>
        <pt x="296" y="108" on="1"/>
        <pt x="155" y="-200" on="1"/>
      </contour>
      <contour>
        <pt x="129" y="330" on="1"/>
        <pt x="149" y="520" on="1"/>
        <pt x="339" y="520" on="1"/>
        <pt x="319" y="330" on="1"/>
      </contour>
    </TTGlyph>
    <TTGlyph name="seven" xMin="106" yMin="0" xMax="653" yMax="700">
      <contour>
        <pt x="298" y="0" on="1"/>
        <pt x="151" y="0" on="1"/>
        <pt x="480" y="578" on="1"/>
        <pt x="480" y="580" on="1"/>
        <pt x="255" y="580" on="1"/>
        <pt x="246" y="490" on="1"/>
        <pt x="106" y="490" on="1"/>
        <pt x="128" y="700" on="1"/>
        <pt x="653" y="700" on="1"/>
        <pt x="644" y="610" on="1"/>
      </contour>
    </TTGlyph>
    <TTGlyph name="six" xMin="91" yMin="-5" xMax="627" yMax="705">
      <contour>
        <pt x="286" y="585" on="1"/>
        <pt x="265" y="384" on="1"/>
        <pt x="340" y="425" on="1"/>
        <pt x="488" y="425" on="1"/>
        <pt x="597" y="358" on="1"/>
        <pt x="566" y="62" on="1"/>
        <pt x="443" y="-5" on="1"/>
        <pt x="200" y="-5" on="1"/>
        <pt x="91" y="62" on="1"/>
        <pt x="152" y="638" on="1"/>
        <pt x="275" y="705" on="1"/>
        <pt x="518" y="705" on="1"/>
        <pt x="627" y="638" on="1"/>
        <pt x="612" y="495" on="1"/>
        <pt x="472" y="495" on="1"/>
        <pt x="481" y="585" on="1"/>
      </contour>
      <contour>
        <pt x="257" y="305" on="1"/>
        <pt x="237" y="115" on="1"/>
        <pt x="432" y="115" on="1"/>
        <pt x="452" y="305" on="1"/>
      </contour>
    </TTGlyph>
    <TTGlyph name="slash" xMin="22" yMin="-20" xMax="466" yMax="720">
      <contour>
        <pt x="22" y="-20" on="1"/>
        <pt x="336" y="720" on="1"/>
        <pt x="466" y="720" on="1"/>
        <pt x="152" y="-20" on="1"/>
      </contour>
    </TTGlyph>
    <TTGlyph name="st" xMin="75" yMin="0" xMax="937" yMax="663">
      <contour>
        <pt x="496" y="246" on="1"/>
        <pt x="478" y="67" on="1"/>
        <pt x="355" y="0" on="1"/>
        <pt x="75" y="0" on="1"/>
        <pt x="87" y="117" on="1"/>
        <pt x="346" y="117" on="1"/>
        <pt x="354" y="194" on="1"/>
        <pt x="211" y="194" on="1"/>
        <pt x="102" y="261" on="1"/>
        <pt x="120" y="433" on="1"/>
        <pt x="243" y="500" on="1"/>
        <pt x="690" y="500" on="1"/>
        <pt x="699" y="584" on="1"/>
        <pt x="844" y="663" on="1"/>
        <pt x="827" y="500" on="1"/>
        <pt x="937" y="500" on="1"/>
        <pt x="925" y="383" on="1"/>
        <pt x="815" y="383" on="1"/>
        <pt x="787" y="117" on="1"/>
        <pt x="897" y="117" on="1"/>
        <pt x="885" y="0" on="1"/>
        <pt x="754" y="0" on="1"/>
        <pt x="645" y="67" on="1"/>
        <pt x="678" y="383" on="1"/>
        <pt x="252" y="383" on="1"/>
        <pt x="244" y="313" on="1"/>
        <pt x="387" y="313" on="1"/>
      </contour>
    </TTGlyph>
    <TTGlyph name="sterling" xMin="64" yMin="0" xMax="629" yMax="705">
      <contour>
        <pt x="410" y="380" on="1"/>
        <pt x="400" y="276" on="1"/>
        <pt x="281" y="276" on="1"/>
        <pt x="264" y="120" on="1"/>
        <pt x="479" y="120" on="1"/>
        <pt x="489" y="210" on="1"/>
        <pt x="629" y="210" on="1"/>
        <pt x="614" y="67" on="1"/>
        <pt x="491" y="0" on="1"/>
        <pt x="112" y="0" on="1"/>
        <pt x="141" y="276" on="1"/>
        <pt x="64" y="276" on="1"/>
        <pt x="74" y="380" on="1"/>
        <pt x="151" y="380" on="1"/>
        <pt x="179" y="638" on="1"/>
        <pt x="302" y="705" on="1"/>
        <pt x="515" y="705" on="1"/>
        <pt x="624" y="638" on="1"/>
        <pt x="609" y="495" on="1"/>
        <pt x="469" y="495" on="1"/>
        <pt x="478" y="585" on="1"/>
        <pt x="313" y="585" on="1"/>
        <pt x="291" y="380" on="1"/>
      </contour>
    </TTGlyph>
    <TTGlyph name="t" xMin="75" yMin="0" xMax="426" yMax="663">
      <contour>
        <pt x="75" y="383" on="1"/>
        <pt x="87" y="500" on="1"/>
        <pt x="179" y="500" on="1"/>
        <pt x="188" y="584" on="1"/>
        <pt x="333" y="663" on="1"/>
        <pt x="316" y="500" on="1"/>
        <pt x="426" y="500" on="1"/>
        <pt x="414" y="383" on="1"/>
        <pt x="304" y="383" on="1"/>
        <pt x="276" y="117" on="1"/>
        <pt x="386" y="117" on="1"/>
        <pt x="374" y="0" on="1"/>
        <pt x="243" y="0" on="1"/>
        <pt x="134" y="67" on="1"/>
        <pt x="167" y="383" on="1"/>
      </contour>
    </TTGlyph>
    <TTGlyph name="thorn" xMin="43" yMin="-200" xMax="566" yMax="730">
      <contour>
        <pt x="141" y="730" on="1"/>
        <pt x="278" y="730" on="1"/>
        <pt x="250" y="464" on="1"/>
        <pt x="326" y="505" on="1"/>
        <pt x="457" y="505" on="1"/>
        <pt x="566" y="438" on="1"/>
        <pt x="526" y="62" on="1"/>
        <pt x="403" y="-5" on="1"/>
        <pt x="272" y="-5" on="1"/>
        <pt x="205" y="36" on="1"/>
        <pt x="180" y="-200" on="1"/>
        <pt x="43" y="-200" on="1"/>
      </contour>
      <contour>
        <pt x="242" y="388" on="1"/>
        <pt x="213" y="112" on="1"/>
        <pt x="394" y="112" on="1"/>
        <pt x="423" y="388" on="1"/>
      </contour>
    </TTGlyph>
    <TTGlyph name="three" xMin="91" yMin="-5" xMax="643" yMax="705">
      <contour>
        <pt x="459" y="-5" on="1"/>
        <pt x="200" y="-5" on="1"/>
        <pt x="91" y="62" on="1"/>
        <pt x="106" y="205" on="1"/>
        <pt x="246" y="205" on="1"/>
        <pt x="237" y="115" on="1"/>
        <pt x="448" y="115" on="1"/>
        <pt x="467" y="302" on="1"/>
        <pt x="292" y="302" on="1"/>
        <pt x="305" y="422" on="1"/>
        <pt x="480" y="422" on="1"/>
        <pt x="497" y="585" on="1"/>
        <pt x="286" y="585" on="1"/>
        <pt x="277" y="495" on="1"/>
        <pt x="137" y="495" on="1"/>
        <pt x="152" y="638" on="1"/>
        <pt x="275" y="705" on="1"/>
        <pt x="534" y="705" on="1"/>
        <pt x="643" y="638" on="1"/>
        <pt x="619" y="413" on="1"/>
        <pt x="527" y="363" on="1"/>
        <pt x="526" y="361" on="1"/>
        <pt x="608" y="311" on="1"/>
        <pt x="582" y="62" on="1"/>
      </contour>
    </TTGlyph>
    <TTGlyph name="tilde" xMin="131" yMin="585" xMax="516" yMax="764">
      <contour>
        <pt x="242" y="667" on="1"/>
        <pt x="238" y="667" on="1"/>
        <pt x="229" y="585" on="1"/>
        <pt x="131" y="585" on="1"/>
        <pt x="144" y="709" on="1"/>
        <pt x="244" y="764" on="1"/>
        <pt x="272" y="764" on="1"/>
        <pt x="405" y="682" on="1"/>
        <pt x="409" y="682" on="1"/>
        <pt x="418" y="764" on="1"/>
        <pt x="516" y="764" on="1"/>
        <pt x="503" y="640" on="1"/>
        <pt x="403" y="585" on="1"/>
        <pt x="375" y="585" on="1"/>
      </contour>
    </TTGlyph>
    <TTGlyph name="tilde.cap" xMin="131" yMin="775" xMax="516" yMax="954">
      <contour>
        <pt x="242" y="857" on="1"/>
        <pt x="238" y="857" on="1"/>
        <pt x="229" y="775" on="1"/>
        <pt x="131" y="775" on="1"/>
        <pt x="144" y="899" on="1"/>
        <pt x="244" y="954" on="1"/>
        <pt x="272" y="954" on="1"/>
        <pt x="405" y="872" on="1"/>
        <pt x="409" y="872" on="1"/>
        <pt x="418" y="954" on="1"/>
        <pt x="516" y="954" on="1"/>
        <pt x="503" y="830" on="1"/>
        <pt x="403" y="775" on="1"/>
        <pt x="375" y="775" on="1"/>
      </contour>
    </TTGlyph>
    <TTGlyph name="trademark" xMin="129" yMin="326" xMax="839" yMax="700">
      <contour>
        <pt x="712" y="326" on="1"/>
        <pt x="730" y="497" on="1"/>
        <pt x="728" y="497" on="1"/>
        <pt x="641" y="326" on="1"/>
        <pt x="565" y="326" on="1"/>
        <pt x="516" y="497" on="1"/>
        <pt x="514" y="497" on="1"/>
        <pt x="496" y="326" on="1"/>
        <pt x="407" y="326" on="1"/>
        <pt x="446" y="700" on="1"/>
        <pt x="551" y="700" on="1"/>
        <pt x="619" y="469" on="1"/>
        <pt x="621" y="469" on="1"/>
        <pt x="735" y="700" on="1"/>
        <pt x="839" y="700" on="1"/>
        <pt x="800" y="326" on="1"/>
      </contour>
      <contour>
        <pt x="312" y="611" on="1"/>
        <pt x="282" y="326" on="1"/>
        <pt x="192" y="326" on="1"/>
        <pt x="222" y="611" on="1"/>
        <pt x="129" y="611" on="1"/>
        <pt x="138" y="700" on="1"/>
        <pt x="413" y="700" on="1"/>
        <pt x="404" y="611" on="1"/>
      </contour>
    </TTGlyph>
    <TTGlyph name="two" xMin="85" yMin="0" xMax="621" yMax="700">
      <contour>
        <pt x="237" y="120" on="1"/>
        <pt x="567" y="120" on="1"/>
        <pt x="555" y="0" on="1"/>
        <pt x="85" y="0" on="1"/>
        <pt x="119" y="329" on="1"/>
        <pt x="242" y="396" on="1"/>
        <pt x="456" y="396" on="1"/>
        <pt x="475" y="580" on="1"/>
        <pt x="285" y="580" on="1"/>
        <pt x="276" y="490" on="1"/>
        <pt x="136" y="490" on="1"/>
        <pt x="151" y="633" on="1"/>
        <pt x="274" y="700" on="1"/>
        <pt x="512" y="700" on="1"/>
        <pt x="621" y="633" on="1"/>
        <pt x="591" y="343" on="1"/>
        <pt x="468" y="276" on="1"/>
        <pt x="254" y="276" on="1"/>
      </contour>
    </TTGlyph>
    <TTGlyph name="u" xMin="81" yMin="-5" xMax="572" yMax="500">
      <contour>
        <pt x="81" y="62" on="1"/>
        <pt x="127" y="500" on="1"/>
        <pt x="264" y="500" on="1"/>
        <pt x="223" y="112" on="1"/>
        <pt x="394" y="112" on="1"/>
        <pt x="435" y="500" on="1"/>
        <pt x="572" y="500" on="1"/>
        <pt x="519" y="-5" on="1"/>
        <pt x="406" y="-5" on="1"/>
        <pt x="386" y="36" on="1"/>
        <pt x="311" y="-5" on="1"/>
        <pt x="190" y="-5" on="1"/>
      </contour>
    </TTGlyph>
    <TTGlyph name="uacute" xMin="81" yMin="-5" xMax="572" yMax="718">
      <contour>
        <pt x="81" y="62" on="1"/>
        <pt x="127" y="500" on="1"/>
        <pt x="264" y="500" on="1"/>
        <pt x="223" y="112" on="1"/>
        <pt x="394" y="112" on="1"/>
        <pt x="435" y="500" on="1"/>
        <pt x="572" y="500" on="1"/>
        <pt x="519" y="-5" on="1"/>
        <pt x="406" y="-5" on="1"/>
        <pt x="386" y="36" on="1"/>
        <pt x="311" y="-5" on="1"/>
        <pt x="190" y="-5" on="1"/>
      </contour>
      <contour>
        <pt x="267" y="590" on="1"/>
        <pt x="374" y="718" on="1"/>
        <pt x="544" y="718" on="1"/>
        <pt x="387" y="590" on="1"/>
      </contour>
    </TTGlyph>
    <TTGlyph name="ucircumflex" xMin="81" yMin="-5" xMax="572" yMax="738">
      <component glyphName="u" x="0" y="0" flags="0x1004"/>
      <component glyphName="circumflex" x="38" y="0" flags="0x1004"/>
    </TTGlyph>
    <TTGlyph name="udieresis" xMin="81" yMin="-5" xMax="572" yMax="730">
      <contour>
        <pt x="81" y="62" on="1"/>
        <pt x="127" y="500" on="1"/>
        <pt x="264" y="500" on="1"/>
        <pt x="223" y="112" on="1"/>
        <pt x="394" y="112" on="1"/>
        <pt x="435" y="500" on="1"/>
        <pt x="572" y="500" on="1"/>
        <pt x="519" y="-5" on="1"/>
        <pt x="406" y="-5" on="1"/>
        <pt x="386" y="36" on="1"/>
        <pt x="311" y="-5" on="1"/>
        <pt x="190" y="-5" on="1"/>
      </contour>
      <contour>
        <pt x="177" y="595" on="1"/>
        <pt x="191" y="730" on="1"/>
        <pt x="326" y="730" on="1"/>
        <pt x="312" y="595" on="1"/>
      </contour>
      <contour>
        <pt x="416" y="595" on="1"/>
        <pt x="430" y="730" on="1"/>
        <pt x="565" y="730" on="1"/>
        <pt x="551" y="595" on="1"/>
      </contour>
    </TTGlyph>
    <TTGlyph name="ugrave" xMin="81" yMin="-5" xMax="572" yMax="718">
      <component glyphName="u" x="0" y="0" flags="0x1004"/>
      <component glyphName="grave" x="0" y="0" flags="0x1004"/>
    </TTGlyph>
    <TTGlyph name="underscore" xMin="-46" yMin="-200" xMax="617" yMax="-86">
      <contour>
        <pt x="617" y="-86" on="1"/>
        <pt x="605" y="-200" on="1"/>
        <pt x="-46" y="-200" on="1"/>
        <pt x="-34" y="-86" on="1"/>
      </contour>
    </TTGlyph>
    <TTGlyph name="v" xMin="67" yMin="0" xMax="574" yMax="500">
      <contour>
        <pt x="204" y="500" on="1"/>
        <pt x="285" y="172" on="1"/>
        <pt x="287" y="172" on="1"/>
        <pt x="437" y="500" on="1"/>
        <pt x="574" y="500" on="1"/>
        <pt x="337" y="0" on="1"/>
        <pt x="200" y="0" on="1"/>
        <pt x="67" y="500" on="1"/>
      </contour>
    </TTGlyph>
    <TTGlyph name="w" xMin="77" yMin="0" xMax="795" yMax="500">
      <contour>
        <pt x="418" y="316" on="1"/>
        <pt x="416" y="316" on="1"/>
        <pt x="295" y="0" on="1"/>
        <pt x="153" y="0" on="1"/>
        <pt x="77" y="500" on="1"/>
        <pt x="204" y="500" on="1"/>
        <pt x="249" y="181" on="1"/>
        <pt x="251" y="181" on="1"/>
        <pt x="373" y="500" on="1"/>
        <pt x="499" y="500" on="1"/>
        <pt x="555" y="181" on="1"/>
        <pt x="557" y="181" on="1"/>
        <pt x="668" y="500" on="1"/>
        <pt x="795" y="500" on="1"/>
        <pt x="615" y="0" on="1"/>
        <pt x="473" y="0" on="1"/>
      </contour>
    </TTGlyph>
    <TTGlyph name="x" xMin="15" yMin="0" xMax="567" yMax="500">
      <contour>
        <pt x="15" y="0" on="1"/>
        <pt x="223" y="255" on="1"/>
        <pt x="73" y="500" on="1"/>
        <pt x="222" y="500" on="1"/>
        <pt x="305" y="359" on="1"/>
        <pt x="418" y="500" on="1"/>
        <pt x="567" y="500" on="1"/>
        <pt x="364" y="255" on="1"/>
        <pt x="521" y="0" on="1"/>
        <pt x="374" y="0" on="1"/>
        <pt x="283" y="150" on="1"/>
        <pt x="162" y="0" on="1"/>
      </contour>
    </TTGlyph>
    <TTGlyph name="y" xMin="67" yMin="-200" xMax="582" yMax="500">
      <contour>
        <pt x="92" y="-200" on="1"/>
        <pt x="209" y="35" on="1"/>
        <pt x="67" y="500" on="1"/>
        <pt x="204" y="500" on="1"/>
        <pt x="296" y="206" on="1"/>
        <pt x="298" y="206" on="1"/>
        <pt x="445" y="500" on="1"/>
        <pt x="582" y="500" on="1"/>
        <pt x="227" y="-200" on="1"/>
      </contour>
    </TTGlyph>
    <TTGlyph name="yacute" xMin="67" yMin="-200" xMax="582" yMax="718">
      <component glyphName="y" x="0" y="0" flags="0x1004"/>
      <component glyphName="acute" x="20" y="0" flags="0x1004"/>
    </TTGlyph>
    <TTGlyph name="ydieresis" xMin="67" yMin="-200" xMax="582" yMax="730">
      <contour>
        <pt x="92" y="-200" on="1"/>
        <pt x="209" y="35" on="1"/>
        <pt x="67" y="500" on="1"/>
        <pt x="204" y="500" on="1"/>
        <pt x="296" y="206" on="1"/>
        <pt x="298" y="206" on="1"/>
        <pt x="445" y="500" on="1"/>
        <pt x="582" y="500" on="1"/>
        <pt x="227" y="-200" on="1"/>
      </contour>
      <contour>
        <pt x="157" y="595" on="1"/>
        <pt x="171" y="730" on="1"/>
        <pt x="306" y="730" on="1"/>
        <pt x="292" y="595" on="1"/>
      </contour>
      <contour>
        <pt x="396" y="595" on="1"/>
        <pt x="410" y="730" on="1"/>
        <pt x="545" y="730" on="1"/>
        <pt x="531" y="595" on="1"/>
      </contour>
    </TTGlyph>
    <TTGlyph name="yen" xMin="75" yMin="0" xMax="699" yMax="700">
      <contour>
        <pt x="260" y="0" on="1"/>
        <pt x="273" y="128" on="1"/>
        <pt x="75" y="128" on="1"/>
        <pt x="86" y="232" on="1"/>
        <pt x="284" y="232" on="1"/>
        <pt x="290" y="293" on="1"/>
        <pt x="92" y="293" on="1"/>
        <pt x="103" y="397" on="1"/>
        <pt x="246" y="397" on="1"/>
        <pt x="108" y="700" on="1"/>
        <pt x="260" y="700" on="1"/>
        <pt x="375" y="438" on="1"/>
        <pt x="377" y="438" on="1"/>
        <pt x="547" y="700" on="1"/>
        <pt x="699" y="700" on="1"/>
        <pt x="496" y="397" on="1"/>
        <pt x="639" y="397" on="1"/>
        <pt x="628" y="293" on="1"/>
        <pt x="430" y="293" on="1"/>
        <pt x="424" y="232" on="1"/>
        <pt x="622" y="232" on="1"/>
        <pt x="611" y="128" on="1"/>
        <pt x="413" y="128" on="1"/>
        <pt x="400" y="0" on="1"/>
      </contour>
    </TTGlyph>
    <TTGlyph name="z" xMin="35" yMin="0" xMax="483" yMax="500">
      <contour>
        <pt x="45" y="96" on="1"/>
        <pt x="291" y="381" on="1"/>
        <pt x="291" y="383" on="1"/>
        <pt x="85" y="383" on="1"/>
        <pt x="97" y="500" on="1"/>
        <pt x="483" y="500" on="1"/>
        <pt x="473" y="404" on="1"/>
        <pt x="227" y="119" on="1"/>
        <pt x="227" y="117" on="1"/>
        <pt x="443" y="117" on="1"/>
        <pt x="431" y="0" on="1"/>
        <pt x="35" y="0" on="1"/>
      </contour>
    </TTGlyph>
    <TTGlyph name="zcaron" xMin="35" yMin="0" xMax="518" yMax="738">
      <contour>
        <pt x="45" y="96" on="1"/>
        <pt x="291" y="381" on="1"/>
        <pt x="291" y="383" on="1"/>
        <pt x="85" y="383" on="1"/>
        <pt x="97" y="500" on="1"/>
        <pt x="483" y="500" on="1"/>
        <pt x="473" y="404" on="1"/>
        <pt x="227" y="119" on="1"/>
        <pt x="227" y="117" on="1"/>
        <pt x="443" y="117" on="1"/>
        <pt x="431" y="0" on="1"/>
        <pt x="35" y="0" on="1"/>
      </contour>
      <contour>
        <pt x="403" y="590" on="1"/>
        <pt x="213" y="590" on="1"/>
        <pt x="127" y="738" on="1"/>
        <pt x="242" y="738" on="1"/>
        <pt x="315" y="658" on="1"/>
        <pt x="403" y="738" on="1"/>
        <pt x="518" y="738" on="1"/>
      </contour>
    </TTGlyph>
    <TTGlyph name="zero" xMin="91" yMin="-5" xMax="657" yMax="705">
      <contour>
        <pt x="596" y="62" on="1"/>
        <pt x="473" y="-5" on="1"/>
        <pt x="200" y="-5" on="1"/>
        <pt x="91" y="62" on="1"/>
        <pt x="152" y="638" on="1"/>
        <pt x="275" y="705" on="1"/>
        <pt x="548" y="705" on="1"/>
        <pt x="657" y="638" on="1"/>
      </contour>
      <contour>
        <pt x="286" y="585" on="1"/>
        <pt x="237" y="115" on="1"/>
        <pt x="462" y="115" on="1"/>
        <pt x="511" y="585" on="1"/>
      </contour>
    </TTGlyph>
</ttFont>
